<svg width="7" height="13" viewBox="0 0 7 13" fill="none" xmlns="http://www.w3.org/2000/svg">
<path d="M4.66245 9.86817C4.66245 10.6881 4.66329 11.5077 4.66245 12.3276C4.66203 12.6769 4.58933 12.7484 4.23968 12.7492C3.60469 12.7505 2.96927 12.75 2.33427 12.7492C2.02203 12.7488 1.94134 12.6695 1.94092 12.3637C1.9405 10.6981 1.93882 9.03284 1.94386 7.36719C1.94386 7.23426 1.91823 7.19231 1.77492 7.19563C1.31307 7.20602 0.851214 7.20062 0.389361 7.19896C0.0813182 7.19771 0.00315187 7.12461 0.00189112 6.82512C-0.000630374 6.20787 -0.000630374 5.59021 0.00189112 4.97296C0.00315187 4.67264 0.0825789 4.5987 0.3881 4.59829C0.86046 4.59746 1.33282 4.59455 1.80518 4.60078C1.91571 4.60244 1.94428 4.57295 1.94302 4.46412C1.93756 3.98685 1.93378 3.50917 1.94428 3.03232C1.96109 2.29419 2.15104 1.60924 2.63433 1.02688C3.11552 0.447431 3.75387 0.145037 4.49015 0.0511623C5.22096 -0.041882 5.95808 0.0216706 6.69226 0.01544C6.85657 0.0137785 6.94903 0.105161 6.95029 0.268819C6.95575 0.912237 6.95617 1.55566 6.95029 2.19866C6.94861 2.37602 6.85363 2.45494 6.64729 2.46034C6.20645 2.47114 5.76561 2.47322 5.32477 2.47738C5.20836 2.47862 5.09447 2.49399 4.98689 2.53885C4.81837 2.60905 4.71162 2.73989 4.68977 2.9131C4.62337 3.44022 4.66666 3.97024 4.66245 4.49901C4.66161 4.59787 4.7402 4.56381 4.78895 4.56423C5.34536 4.5663 5.90177 4.56506 6.45818 4.56589C6.81749 4.56589 6.89061 4.63899 6.89061 4.99497C6.89061 5.59685 6.89103 6.19873 6.89061 6.80061C6.89061 7.11588 6.82505 7.18068 6.50104 7.18151C5.93917 7.18317 5.37772 7.18567 4.81626 7.17902C4.69355 7.17777 4.65909 7.20768 4.65993 7.33188C4.66582 8.17758 4.66287 9.02329 4.66287 9.869L4.66245 9.86817Z" fill="white"/>
</svg>
