<svg width="14" height="14" viewBox="0 0 14 14" fill="none" xmlns="http://www.w3.org/2000/svg">
<path d="M0.0221958 6.22919C0.0221958 6.63032 0.0221958 7.03145 0.0221958 7.43258C0.0147081 7.44435 0.00722032 7.44435 0 7.43258V6.22973C0.00722032 6.21743 0.0147081 6.21796 0.0221958 6.22973V6.22919Z" fill="white"/>
<path d="M5.64118 13.6609C5.82276 13.6607 6.00433 13.6596 6.18591 13.6607C6.22843 13.6609 6.27577 13.646 6.31026 13.6869H5.64198C5.63342 13.6815 5.63048 13.6756 5.63289 13.67C5.63556 13.6641 5.63824 13.6612 5.64118 13.6612V13.6609Z" fill="white"/>
<path d="M7.43237 13.6869C7.53159 13.631 7.63909 13.6674 7.74258 13.6618C7.86158 13.6551 7.98138 13.6604 8.10092 13.6604C8.10948 13.6663 8.11242 13.6722 8.10948 13.6781C8.10654 13.684 8.1036 13.6869 8.10065 13.6869H7.43237Z" fill="white"/>
<path d="M6.28365 0.000267419C6.17507 0.0574951 6.05901 0.0181845 5.94643 0.0254048C5.84508 0.0320903 5.74292 0.0262071 5.64104 0.0256722C5.63275 0.019789 5.63034 0.0139058 5.63328 0.00829C5.63622 0.00294161 5.63917 0 5.64211 0H6.28365V0.000267419Z" fill="white"/>
<path d="M8.10157 0.0262071C7.92882 0.0264745 7.75633 0.0275442 7.58358 0.0262071C7.54106 0.0259397 7.49373 0.0409151 7.45923 0H8.10077C8.10933 0.0056158 8.11253 0.0112316 8.10986 0.0171148C8.10719 0.0229981 8.10451 0.0259397 8.10157 0.0259397V0.0262071Z" fill="white"/>
<path d="M0.000328454 7.4314C0.00781619 7.43193 0.0153039 7.43193 0.0225242 7.4314C0.0225242 7.62741 0.0225242 7.82343 0.0225242 8.01972H0.0112926L6.10352e-05 8.01945V7.4314H0.000328454Z" fill="white"/>
<path d="M0.0224632 6.22797H0.0112316H0V5.66666C0.00748774 5.66585 0.0149755 5.66585 0.0224632 5.66639C0.0224632 5.85358 0.0224632 6.04078 0.0224632 6.2277V6.22797Z" fill="white"/>
<path d="M4.99929 13.6882C5.07444 13.6325 5.15947 13.6735 5.23917 13.663C5.24826 13.6684 5.25147 13.6737 5.24853 13.6796C5.24558 13.6852 5.24264 13.6882 5.2397 13.6882H4.99902H4.99929Z" fill="white"/>
<path d="M8.71575 0C8.6406 0.0556232 8.55583 0.0149755 8.47587 0.0246026C8.46678 0.0195216 8.46357 0.0141732 8.46624 0.00855742C8.46919 0.00294161 8.47213 0 8.47507 0L8.71575 0Z" fill="white"/>
<path d="M5.23978 0.02487C5.16812 0.0240677 5.09671 0.0232655 5.02505 0.0224632C5.01756 0.0168474 5.01542 0.0117664 5.01836 0.0069529C5.0213 0.00240677 5.02398 0 5.02665 0H5.24059C5.24941 0.0056158 5.25235 0.0112316 5.24914 0.01658C5.24593 0.0219284 5.24299 0.0246026 5.23978 0.0246026V0.02487Z" fill="white"/>
<path d="M5.64164 0.000267419C5.64164 0.00882484 5.6411 0.0173823 5.64057 0.0259397C5.56943 0.0259397 5.4983 0.0259397 5.42717 0.0259397C5.41861 0.0200564 5.41593 0.0141732 5.41888 0.00855742C5.42182 0.00294161 5.42476 0 5.4277 0H5.64164V0.000267419Z" fill="white"/>
<path d="M5.63981 13.6614C5.64034 13.67 5.64061 13.6785 5.64061 13.6871H5.42668C5.41785 13.6815 5.41491 13.6756 5.41785 13.67C5.42053 13.6641 5.42347 13.6611 5.42641 13.6611C5.49754 13.6611 5.56868 13.6611 5.63981 13.6611V13.6614Z" fill="white"/>
<path d="M8.28873 13.6611L8.50294 13.6627C8.51096 13.6684 8.51363 13.6737 8.51069 13.6791C8.50775 13.6841 8.50481 13.6868 8.50213 13.6868H8.2882C8.27937 13.6809 8.27643 13.675 8.27964 13.6694C8.28258 13.6638 8.28579 13.6611 8.28873 13.6611Z" fill="white"/>
<path d="M5.42743 0C5.42743 0.00853217 5.42743 0.017331 5.4269 0.0258631C5.36451 0.0255965 5.30238 0.0250632 5.23999 0.0247966C5.24052 0.0165311 5.24079 0.00826554 5.24079 0.00026663H5.42743V0Z" fill="white"/>
<path d="M8.1009 0.0258631C8.10036 0.017331 8.1001 0.0087988 8.1001 0H8.28674C8.29527 0.00559923 8.29847 0.0111985 8.29554 0.0167977C8.29287 0.0226636 8.28994 0.0255965 8.28727 0.0255965C8.22515 0.0255965 8.16302 0.0255965 8.1009 0.0258631Z" fill="white"/>
<path d="M8.28789 0.0255965C8.28735 0.0170643 8.28735 0.00853217 8.28735 0H8.47399C8.47399 0.00826554 8.47399 0.0162644 8.47479 0.02453C8.41267 0.0247966 8.35028 0.0250632 8.28815 0.0255965H8.28789Z" fill="white"/>
<path d="M9.06189 0C8.99976 0.0466603 8.93737 0.0397279 8.87524 0H9.06189Z" fill="white"/>
<path d="M5.4269 13.6607C5.42716 13.6692 5.42743 13.678 5.42716 13.6865H5.24052C5.24052 13.6783 5.24052 13.6697 5.23999 13.6615C5.30238 13.6612 5.36451 13.6609 5.4269 13.6604V13.6607Z" fill="white"/>
<path d="M8.28727 13.661C8.28701 13.6695 8.28674 13.678 8.28674 13.6866H8.1001C8.1001 13.6778 8.1001 13.669 8.1001 13.6602C8.16249 13.6604 8.22461 13.6607 8.287 13.661H8.28727Z" fill="white"/>
<path d="M8.50098 13.6875C8.50098 13.6795 8.50124 13.6715 8.50204 13.6635C8.56417 13.6696 8.63136 13.6358 8.68762 13.6875H8.50098Z" fill="white"/>
<path d="M5.02594 0C5.02568 0.00746565 5.02515 0.0149313 5.02435 0.0223969C4.97102 0.0181309 4.91236 0.0525262 4.86597 0H5.02594Z" fill="white"/>
<path d="M4.65259 13.687C4.70591 13.6433 4.75924 13.6462 4.81257 13.687H4.65259Z" fill="white"/>
<path d="M8.82153 13.6872C8.87486 13.6477 8.92819 13.6442 8.98151 13.6872H8.82153Z" fill="white"/>
<path d="M4.59752 0.0221303C4.56926 0.0213304 4.53406 0.0453271 4.51807 0H4.59806C4.60685 0.00506597 4.60979 0.0101319 4.60659 0.0149313C4.60365 0.0197306 4.60046 0.0221303 4.59752 0.0221303Z" fill="white"/>
<path d="M4.59888 0.0221303C4.59888 0.0146647 4.59941 0.00719902 4.59941 0H4.6794C4.6882 0.00506597 4.69113 0.0101319 4.68793 0.0149313C4.685 0.0197306 4.6818 0.0221303 4.67887 0.0221303C4.6522 0.0221303 4.62554 0.0221303 4.59888 0.0221303Z" fill="white"/>
<path d="M4.67896 0.0219284C4.67922 0.0147081 4.67949 0.00722032 4.67949 0H4.73297C4.72549 0.03316 4.70195 0.0264745 4.67896 0.0219284Z" fill="white"/>
<path d="M13.6653 4.11575C13.6653 4.09815 13.6653 4.08029 13.6653 4.06269C13.673 4.05202 13.6805 4.05176 13.6874 4.06349V4.11681C13.6794 4.12935 13.672 4.12855 13.665 4.11575H13.6653Z" fill="white"/>
<path d="M13.6873 4.06327C13.6798 4.06273 13.6723 4.06246 13.6651 4.06246C13.6651 4.04455 13.6651 4.02663 13.6651 4.00898C13.6731 3.99775 13.6803 3.99855 13.6873 4.01005V4.06353V4.06327Z" fill="white"/>
<path d="M13.6652 4.11621C13.6727 4.11621 13.6802 4.11675 13.6877 4.11728V4.17076C13.662 4.16007 13.661 4.13921 13.6652 4.11621Z" fill="white"/>
<path d="M13.6648 9.411C13.6611 9.388 13.6629 9.36768 13.6875 9.35645V9.40993C13.6806 9.4217 13.6728 9.4217 13.6648 9.411Z" fill="white"/>
<path d="M13.6651 9.41123C13.6726 9.41069 13.6803 9.41042 13.6878 9.41016V9.46364C13.6809 9.47487 13.6734 9.47594 13.6654 9.46471C13.6654 9.44706 13.6651 9.42914 13.6651 9.41149V9.41123Z" fill="white"/>
<path d="M13.665 9.46396C13.6725 9.46396 13.68 9.46343 13.6875 9.46289V9.51637C13.6805 9.52787 13.6731 9.52814 13.665 9.51718C13.665 9.49953 13.665 9.48161 13.665 9.46396Z" fill="white"/>
<path d="M13.6651 9.51765C13.6726 9.51765 13.6801 9.51765 13.6876 9.51685V9.57033C13.6803 9.5821 13.6731 9.5821 13.6651 9.57113C13.6651 9.55348 13.6651 9.53557 13.6651 9.51792V9.51765Z" fill="white"/>
<path d="M13.6653 9.57111C13.6728 9.57111 13.6803 9.57085 13.6878 9.57031V9.6238C13.6541 9.61738 13.6615 9.59331 13.6653 9.57111Z" fill="white"/>
<path d="M13.688 4.00954C13.6805 4.009 13.6733 4.00874 13.6658 4.00847C13.6623 3.98627 13.6541 3.96221 13.688 3.95605V4.00954Z" fill="white"/>
<path d="M9.1438 13.6875C9.16172 13.6484 9.17937 13.6484 9.19728 13.6875H9.1438Z" fill="white"/>
<path d="M13.6868 3.87624C13.6662 3.85378 13.674 3.82597 13.6732 3.80003C13.6649 3.53341 13.6427 3.26893 13.5857 3.00686C13.3956 2.13267 12.9768 1.39807 12.2681 0.841301C11.5811 0.301649 10.7826 0.0751448 9.92447 0.0288813C9.69957 0.0168474 9.47387 0.0203239 9.24897 0H9.06178C8.99947 0.0219284 8.93716 0.0219284 8.87458 0H8.71413C8.63337 0.0294161 8.5494 0.00615064 8.46757 0.0139058C8.40553 0.0139058 8.34322 0.0139058 8.28118 0.0139058C8.21753 0.0139058 8.15362 0.0139058 8.08997 0.0139058C7.87925 0.0056158 7.66799 0.0310206 7.4578 0H6.28169C6.07016 0.0307532 5.85756 0.0056158 5.64576 0.0139058C5.57356 0.0139058 5.50136 0.0139058 5.42889 0.0139058C5.36631 0.0139058 5.30373 0.0139058 5.24116 0.0139058C5.17297 0.0139058 5.10477 0.0139058 5.03658 0.0139058C4.97962 0.00722032 4.92025 0.028079 4.8649 0H4.73119C4.71327 0.0195216 4.6892 0.0120339 4.66754 0.0139058C4.64481 0.0139058 4.62181 0.0139058 4.59908 0.0139058C4.57181 0.0101619 4.54159 0.0235329 4.51752 0H4.41055C4.25331 0.0320903 4.09259 0.0189868 3.93455 0.0224632C3.55829 0.0307532 3.19032 0.0807606 2.82743 0.176497C1.85135 0.434021 1.09081 0.983568 0.583784 1.86017C0.183457 2.55198 0.0441316 3.316 0.0288887 4.10435C0.0187268 4.63357 0.00428615 5.1628 0.0133784 5.69202C0.0133784 5.87386 0.0133784 6.05571 0.0133784 6.23755C0.0133784 6.63387 0.0133784 7.03019 0.0133784 7.4265C0.0133784 7.6169 0.0133784 7.80731 0.0133784 7.99771C0.00990195 8.46489 0.0197965 8.9318 0.0251448 9.39872C0.0307607 9.87152 0.0644555 10.34 0.177574 10.8011C0.352733 11.514 0.67952 12.1446 1.22292 12.6438C1.97169 13.3319 2.8769 13.6285 3.88106 13.6614C4.04847 13.667 4.21694 13.6606 4.38354 13.6865H4.65096C4.70445 13.6646 4.75793 13.6646 4.81141 13.6865H4.99861C5.07964 13.6571 5.16361 13.6804 5.2457 13.6726C5.30801 13.6726 5.37032 13.6726 5.43263 13.6726C5.50457 13.6726 5.57677 13.6726 5.6487 13.6726C5.86852 13.6806 6.08888 13.656 6.30843 13.6865H7.43132C7.65114 13.656 7.87203 13.6806 8.09238 13.6726C8.15629 13.6726 8.21994 13.6726 8.28385 13.6726C8.35312 13.6726 8.42211 13.6726 8.49137 13.6726C8.55662 13.6796 8.62401 13.6571 8.68792 13.6865H8.82163C8.87512 13.6646 8.9286 13.6646 8.98209 13.6865H9.14254C9.16045 13.6697 9.1781 13.6697 9.19602 13.6865H9.27625C9.35808 13.6571 9.44285 13.6764 9.52628 13.6734C9.92206 13.6595 10.3168 13.6451 10.7064 13.5595C11.5771 13.368 12.3093 12.9514 12.8639 12.2457C13.3672 11.6049 13.6108 10.8671 13.6617 10.0595C13.6681 9.95869 13.6617 9.85654 13.6871 9.75706V9.62335C13.6689 9.6065 13.6745 9.58404 13.6732 9.56318C13.6732 9.54687 13.6732 9.53082 13.6732 9.51451C13.6732 9.4982 13.6732 9.48189 13.6732 9.46557C13.6732 9.44926 13.6732 9.43295 13.6732 9.41663C13.6745 9.39578 13.6686 9.37331 13.6871 9.3562V4.1704C13.6691 4.15382 13.6745 4.13189 13.6732 4.1113C13.6732 4.09553 13.6732 4.07948 13.6732 4.0637C13.6732 4.04766 13.6732 4.03188 13.6732 4.01583C13.6745 3.99524 13.6689 3.97305 13.6871 3.95647V3.87624H13.6868ZM12.4559 9.24896C12.4414 9.68967 12.4272 10.1312 12.3099 10.5599C12.025 11.5996 11.3263 12.1807 10.2791 12.3481C9.50676 12.4716 8.72456 12.446 7.94557 12.4556C7.5891 12.4601 7.23263 12.4564 6.87643 12.4564C5.88751 12.4556 4.89833 12.4682 3.91048 12.4034C3.41335 12.3708 2.92932 12.2759 2.49556 12.0176C1.81498 11.6121 1.47509 10.9824 1.36518 10.2186C1.2542 9.44899 1.27346 8.67214 1.26624 7.89769C1.25608 6.80181 1.2542 5.70566 1.28442 4.61004C1.29779 4.12521 1.30501 3.63851 1.42776 3.16464C1.69224 2.14363 2.36373 1.55959 3.3858 1.36518C3.97947 1.25232 4.5825 1.26088 5.18339 1.25366C6.46647 1.23788 7.74955 1.23574 9.03236 1.26115C9.51238 1.27078 9.994 1.27907 10.4668 1.38577C11.5386 1.62778 12.22 2.36372 12.3772 3.45318C12.473 4.11692 12.4714 4.78573 12.4762 5.45321C12.4853 6.71837 12.4973 7.98353 12.4559 9.24843V9.24896Z" fill="white"/>
<path d="M11.3431 3.19278C11.342 3.649 10.9759 4.01242 10.5192 4.01028C10.0664 4.00814 9.70138 3.63643 9.70486 3.18128C9.70834 2.73255 10.0728 2.37234 10.5237 2.37207C10.9821 2.37207 11.3441 2.73442 11.3431 3.19278Z" fill="white"/>
<path d="M6.8701 3.33008C4.92944 3.33088 3.35247 4.90678 3.35327 6.8445C3.35407 8.78276 4.93185 10.3603 6.86983 10.3611C8.80889 10.3619 10.3851 8.78516 10.3851 6.84477C10.3851 4.90304 8.8113 3.32928 6.87037 3.33008H6.8701ZM6.8709 9.12238C5.60574 9.12291 4.58795 8.10324 4.59196 6.83889C4.5957 5.57827 5.60949 4.56716 6.86903 4.56662C8.13446 4.56609 9.15145 5.58522 9.14825 6.85039C9.14504 8.11073 8.13152 9.12184 6.8709 9.12238Z" fill="white"/>
</svg>
