<svg width="12" height="12" viewBox="0 0 12 12" fill="none" xmlns="http://www.w3.org/2000/svg">
<path d="M6.42867 4.91252C6.66922 4.55226 6.96054 4.26473 7.32535 4.04956C7.90911 3.70559 8.54402 3.64043 9.20241 3.70256C9.6642 3.74612 10.1055 3.85787 10.4969 4.1185C11.0458 4.48407 11.3174 5.02806 11.4685 5.64743C11.6072 6.2168 11.6337 6.7983 11.6352 7.38055C11.6386 8.74848 11.6345 10.1164 11.6394 11.4847C11.6398 11.604 11.5992 11.6203 11.4954 11.62C10.7806 11.6162 10.0661 11.6154 9.35129 11.6207C9.24598 11.6215 9.21908 11.5968 9.21946 11.49C9.22287 10.1929 9.22211 8.89584 9.21946 7.59913C9.2187 7.32486 9.20014 7.05097 9.14559 6.78049C8.98307 5.97625 8.46409 5.71903 7.73978 5.80427C7.06093 5.8842 6.69385 6.28613 6.58399 7.01726C6.54383 7.28471 6.52868 7.55329 6.52906 7.82339C6.5302 9.04926 6.52792 10.2755 6.53209 11.5014C6.53247 11.6131 6.50368 11.6408 6.39268 11.64C5.68277 11.6347 4.97286 11.6347 4.26294 11.64C4.15005 11.6408 4.11255 11.6203 4.11255 11.4968C4.11672 9.00229 4.11634 6.50774 4.11293 4.01319C4.11293 3.89651 4.1402 3.86393 4.25953 3.86507C4.94103 3.87113 5.62254 3.87 6.30404 3.86583C6.40291 3.86507 6.43322 3.89159 6.43094 3.9916C6.4245 4.29844 6.42867 4.60567 6.42867 4.91252Z" fill="white"/>
<path d="M0.19196 7.75085C0.19196 6.5068 0.194232 5.26275 0.18855 4.01869C0.187793 3.89103 0.221129 3.86413 0.344246 3.86527C1.05378 3.87171 1.76332 3.87019 2.47285 3.86603C2.57438 3.86527 2.60885 3.88459 2.60885 3.99596C2.60544 6.50301 2.60544 9.01044 2.60885 11.5175C2.60885 11.6202 2.57779 11.6406 2.48157 11.6402C1.76256 11.6361 1.04355 11.6345 0.324548 11.6414C0.204461 11.6425 0.190065 11.5997 0.190444 11.4974C0.193475 10.2484 0.192338 8.99983 0.192338 7.75085H0.19196Z" fill="white"/>
<path d="M2.79192 1.39261C2.79685 2.16276 2.1699 2.80334 1.40695 2.80751C0.639453 2.81168 0 2.17147 0 1.39791C0 0.636857 0.625058 0.00687401 1.38763 5.51983e-05C2.15588 -0.00676361 2.787 0.619052 2.79192 1.39261Z" fill="white"/>
</svg>
