<svg width="147" height="379" viewBox="0 0 147 379" fill="none" xmlns="http://www.w3.org/2000/svg">
<rect x="73" y="143" width="9" height="68" fill="#FBD738"/>
<circle cx="73.5" cy="73.5" r="73.5" fill="#FBD738"/>
<circle cx="74" cy="74" r="60" fill="url(#paint0_linear_7_203)"/>
<circle cx="73.5" cy="73.5" r="52.5" stroke="#FBD738" stroke-width="2"/>
<circle cx="73" cy="374" r="5" transform="rotate(-180 73 374)" fill="#FBD738"/>
<circle cx="73" cy="354" r="5" transform="rotate(-180 73 354)" fill="#FBD738"/>
<circle cx="73" cy="318" r="21" transform="rotate(-180 73 318)" fill="#D9D9D9"/>
<circle cx="73" cy="318" r="17" transform="rotate(-180 73 318)" fill="#FCD838"/>
<circle cx="73" cy="318" r="9" transform="rotate(-180 73 318)" fill="#FCD838" stroke="white"/>
<circle cx="73" cy="240" r="37" fill="white"/>
<circle cx="73" cy="240" r="29" fill="#FBD738"/>
<circle cx="73" cy="240" r="19" fill="white"/>
<path d="M66.2885 246.216C65.2565 246.216 64.3325 245.964 63.5165 245.46C62.7005 244.944 62.0585 244.2 61.5905 243.228C61.1225 242.256 60.8885 241.08 60.8885 239.7C60.8885 238.32 61.1225 237.144 61.5905 236.172C62.0585 235.2 62.7005 234.462 63.5165 233.958C64.3325 233.442 65.2565 233.184 66.2885 233.184C67.3325 233.184 68.2565 233.442 69.0605 233.958C69.8765 234.462 70.5185 235.2 70.9865 236.172C71.4545 237.144 71.6885 238.32 71.6885 239.7C71.6885 241.08 71.4545 242.256 70.9865 243.228C70.5185 244.2 69.8765 244.944 69.0605 245.46C68.2565 245.964 67.3325 246.216 66.2885 246.216ZM66.2885 243.75C66.7805 243.75 67.2065 243.612 67.5665 243.336C67.9385 243.06 68.2265 242.622 68.4305 242.022C68.6465 241.422 68.7545 240.648 68.7545 239.7C68.7545 238.752 68.6465 237.978 68.4305 237.378C68.2265 236.778 67.9385 236.34 67.5665 236.064C67.2065 235.788 66.7805 235.65 66.2885 235.65C65.8085 235.65 65.3825 235.788 65.0105 236.064C64.6505 236.34 64.3625 236.778 64.1465 237.378C63.9425 237.978 63.8405 238.752 63.8405 239.7C63.8405 240.648 63.9425 241.422 64.1465 242.022C64.3625 242.622 64.6505 243.06 65.0105 243.336C65.3825 243.612 65.8085 243.75 66.2885 243.75ZM72.9613 243.354V241.392L78.9013 233.4H81.9613L76.1473 241.392L74.7253 240.978H84.6433V243.354H72.9613ZM79.7473 246V243.354L79.8373 240.978V238.62H82.5913V246H79.7473Z" fill="black"/>
<path d="M60.1865 248.25H84.8053V249.15H60.1865V248.25Z" fill="black"/>
<path d="M71.1872 52.5121C72.7397 51.1846 75.2822 51.1846 76.8572 52.5121L80.4122 55.5723C81.0872 56.1573 82.3472 56.6298 83.2472 56.6298H87.0722C89.4572 56.6298 91.4147 58.5871 91.4147 60.9721V64.7973C91.4147 65.6748 91.8872 66.9573 92.4722 67.6323L95.5322 71.1872C96.8597 72.7397 96.8597 75.2823 95.5322 76.8573L92.4722 80.4122C91.8872 81.0872 91.4147 82.3472 91.4147 83.2472V87.0723C91.4147 89.4573 89.4572 91.4147 87.0722 91.4147H83.2472C82.3697 91.4147 81.0872 91.8871 80.4122 92.4721L76.8572 95.5321C75.3047 96.8596 72.7622 96.8596 71.1872 95.5321L67.6323 92.4721C66.9573 91.8871 65.6972 91.4147 64.7972 91.4147H60.9047C58.5197 91.4147 56.5622 89.4573 56.5622 87.0723V83.2247C56.5622 82.3472 56.0897 81.0872 55.5272 80.4122L52.4897 76.8347C51.1847 75.2822 51.1847 72.7622 52.4897 71.2097L55.5272 67.6323C56.0897 66.9573 56.5622 65.6973 56.5622 64.8198V60.9721C56.5622 58.5871 58.5197 56.6298 60.9047 56.6298H64.7972C65.6747 56.6298 66.9573 56.1573 67.6323 55.5723L71.1872 52.5121Z" stroke="#0D4A64" stroke-width="3" stroke-linecap="round" stroke-linejoin="round"/>
<path d="M69.2528 80.345L72.5153 82.865C72.9428 83.2925 73.8878 83.495 74.5178 83.495H78.5003C79.7603 83.495 81.1328 82.5501 81.4478 81.2901L83.9678 73.595C84.4853 72.1325 83.5403 70.85 81.9653 70.85H77.7578C77.1278 70.85 76.6103 70.3327 76.7003 69.5902L77.2178 66.2152C77.4203 65.2702 76.7903 64.2126 75.8453 63.8976C75.0128 63.5826 73.9553 64.01 73.5278 64.64L69.2078 71.0525" stroke="#0D4A64" stroke-width="3" stroke-miterlimit="10"/>
<path d="M63.875 80.3452V70.0403C63.875 68.5553 64.505 68.0377 65.99 68.0377H67.0475C68.51 68.0377 69.1625 68.5553 69.1625 70.0403V80.3452C69.1625 81.8077 68.5325 82.3477 67.0475 82.3477H65.99C64.505 82.3477 63.875 81.8302 63.875 80.3452Z" stroke="#0D4A64" stroke-width="3" stroke-linecap="round" stroke-linejoin="round"/>
<defs>
<linearGradient id="paint0_linear_7_203" x1="133.997" y1="134.011" x2="13.9945" y2="134.011" gradientUnits="userSpaceOnUse">
<stop stop-color="white"/>
<stop offset="1" stop-color="#D6D6D6"/>
</linearGradient>
</defs>
</svg>
