<svg width="147" height="382" viewBox="0 0 147 382" fill="none" xmlns="http://www.w3.org/2000/svg">
<rect x="69" y="172" width="9" height="68" fill="#FBD738"/>
<circle cx="73.5" cy="308.5" r="73.5" fill="#FBD738"/>
<circle cx="74" cy="309" r="60" fill="url(#paint0_linear_7_200)"/>
<circle cx="73.5" cy="308.5" r="52.5" stroke="#FBD738" stroke-width="2"/>
<circle cx="74" cy="5" r="5" fill="#FBD738"/>
<circle cx="74" cy="25" r="5" fill="#FBD738"/>
<circle cx="74" cy="61" r="21" fill="#D9D9D9"/>
<circle cx="74" cy="61" r="17" fill="#FCD838"/>
<circle cx="74" cy="61" r="9" fill="#FCD838" stroke="white"/>
<circle cx="74" cy="139" r="37" fill="white"/>
<circle cx="74" cy="139" r="29" fill="#FBD738"/>
<circle cx="74" cy="139" r="19" fill="white"/>
<path d="M70.5043 145.216C69.4723 145.216 68.5483 144.964 67.7323 144.46C66.9163 143.944 66.2743 143.2 65.8063 142.228C65.3383 141.256 65.1043 140.08 65.1043 138.7C65.1043 137.32 65.3383 136.144 65.8063 135.172C66.2743 134.2 66.9163 133.462 67.7323 132.958C68.5483 132.442 69.4723 132.184 70.5043 132.184C71.5483 132.184 72.4723 132.442 73.2763 132.958C74.0923 133.462 74.7343 134.2 75.2023 135.172C75.6703 136.144 75.9043 137.32 75.9043 138.7C75.9043 140.08 75.6703 141.256 75.2023 142.228C74.7343 143.2 74.0923 143.944 73.2763 144.46C72.4723 144.964 71.5483 145.216 70.5043 145.216ZM70.5043 142.75C70.9963 142.75 71.4223 142.612 71.7823 142.336C72.1543 142.06 72.4423 141.622 72.6463 141.022C72.8623 140.422 72.9703 139.648 72.9703 138.7C72.9703 137.752 72.8623 136.978 72.6463 136.378C72.4423 135.778 72.1543 135.34 71.7823 135.064C71.4223 134.788 70.9963 134.65 70.5043 134.65C70.0243 134.65 69.5983 134.788 69.2263 135.064C68.8663 135.34 68.5783 135.778 68.3623 136.378C68.1583 136.978 68.0563 137.752 68.0563 138.7C68.0563 139.648 68.1583 140.422 68.3623 141.022C68.5783 141.622 68.8663 142.06 69.2263 142.336C69.5983 142.612 70.0243 142.75 70.5043 142.75ZM79.1948 145V133.48L80.4548 134.74H76.6748V132.4H82.1108V145H79.1948Z" fill="black"/>
<path d="M64.4023 147.25H83.6048V148.15H64.4023V147.25Z" fill="black"/>
<path d="M95.3071 324.75V293.25C95.3071 288.75 93.0571 286.5 88.5571 286.5H79.5571C75.0571 286.5 72.8071 288.75 72.8071 293.25V324.75C72.8071 329.25 75.0571 331.5 79.5571 331.5H88.5571C93.0571 331.5 95.3071 329.25 95.3071 324.75Z" stroke="#0D4A64" stroke-width="3" stroke-linecap="round"/>
<path d="M72.8071 295.5H84.0571" stroke="#0D4A64" stroke-width="3" stroke-linecap="round"/>
<path d="M72.8071 322.5H81.8071" stroke="#0D4A64" stroke-width="3" stroke-linecap="round"/>
<path d="M72.8071 313.387L84.0571 313.5" stroke="#0D4A64" stroke-width="3" stroke-linecap="round"/>
<path d="M72.8071 304.5H79.5571" stroke="#0D4A64" stroke-width="3" stroke-linecap="round"/>
<path d="M59.3526 286.5C55.6851 286.5 52.6926 289.492 52.6926 293.137V322.297C52.6926 323.31 53.1201 324.84 53.6376 325.717L55.4826 328.777C57.5976 332.31 61.0851 332.31 63.2001 328.777L65.0451 325.717C65.5626 324.84 65.9901 323.31 65.9901 322.297V293.137C65.9901 289.492 62.9976 286.5 59.3526 286.5Z" stroke="#0D4A64" stroke-width="3" stroke-linecap="round"/>
<path d="M65.9901 297.75H52.6926" stroke="#0D4A64" stroke-width="3" stroke-linecap="round"/>
<defs>
<linearGradient id="paint0_linear_7_200" x1="133.997" y1="369.011" x2="13.9945" y2="369.011" gradientUnits="userSpaceOnUse">
<stop stop-color="white"/>
<stop offset="1" stop-color="#D6D6D6"/>
</linearGradient>
</defs>
</svg>
