<svg width="147" height="382" viewBox="0 0 147 382" fill="none" xmlns="http://www.w3.org/2000/svg">
<rect x="69" y="172" width="9" height="68" fill="#C1D22E"/>
<circle cx="73.5" cy="308.5" r="73.5" fill="#C1D22E"/>
<circle cx="74" cy="309" r="60" fill="url(#paint0_linear_7_202)"/>
<circle cx="73.5" cy="308.5" r="52.5" stroke="#C1D22E" stroke-width="2"/>
<circle cx="73" cy="5" r="5" fill="#C1D22E"/>
<circle cx="73" cy="25" r="5" fill="#C1D22E"/>
<circle cx="73" cy="61" r="21" fill="#D9D9D9"/>
<circle cx="73" cy="61" r="17" fill="#C1D22E"/>
<circle cx="73" cy="61" r="9" fill="#C1D22E" stroke="white"/>
<circle cx="73" cy="139" r="37" fill="white"/>
<circle cx="73" cy="139" r="29" fill="#C1D22E"/>
<circle cx="73" cy="139" r="19" fill="white"/>
<path d="M67.2553 145.216C66.2233 145.216 65.2993 144.964 64.4833 144.46C63.6673 143.944 63.0253 143.2 62.5573 142.228C62.0893 141.256 61.8553 140.08 61.8553 138.7C61.8553 137.32 62.0893 136.144 62.5573 135.172C63.0253 134.2 63.6673 133.462 64.4833 132.958C65.2993 132.442 66.2233 132.184 67.2553 132.184C68.2993 132.184 69.2233 132.442 70.0273 132.958C70.8433 133.462 71.4853 134.2 71.9533 135.172C72.4213 136.144 72.6553 137.32 72.6553 138.7C72.6553 140.08 72.4213 141.256 71.9533 142.228C71.4853 143.2 70.8433 143.944 70.0273 144.46C69.2233 144.964 68.2993 145.216 67.2553 145.216ZM67.2553 142.75C67.7473 142.75 68.1733 142.612 68.5333 142.336C68.9053 142.06 69.1933 141.622 69.3973 141.022C69.6133 140.422 69.7213 139.648 69.7213 138.7C69.7213 137.752 69.6133 136.978 69.3973 136.378C69.1933 135.778 68.9053 135.34 68.5333 135.064C68.1733 134.788 67.7473 134.65 67.2553 134.65C66.7753 134.65 66.3493 134.788 65.9773 135.064C65.6173 135.34 65.3293 135.778 65.1133 136.378C64.9093 136.978 64.8073 137.752 64.8073 138.7C64.8073 139.648 64.9093 140.422 65.1133 141.022C65.3293 141.622 65.6173 142.06 65.9773 142.336C66.3493 142.612 66.7753 142.75 67.2553 142.75ZM77.9823 145.216C77.1063 145.216 76.2363 145.102 75.3723 144.874C74.5083 144.634 73.7763 144.298 73.1763 143.866L74.3103 141.634C74.7903 141.982 75.3483 142.258 75.9843 142.462C76.6203 142.666 77.2623 142.768 77.9103 142.768C78.6423 142.768 79.2183 142.624 79.6383 142.336C80.0583 142.048 80.2683 141.652 80.2683 141.148C80.2683 140.668 80.0823 140.29 79.7103 140.014C79.3383 139.738 78.7383 139.6 77.9103 139.6H76.5783V137.674L80.0883 133.696L80.4123 134.74H73.8063V132.4H82.6263V134.29L79.1343 138.268L77.6583 137.422H78.5043C80.0523 137.422 81.2223 137.77 82.0143 138.466C82.8063 139.162 83.2023 140.056 83.2023 141.148C83.2023 141.856 83.0163 142.522 82.6443 143.146C82.2723 143.758 81.7023 144.256 80.9343 144.64C80.1663 145.024 79.1823 145.216 77.9823 145.216Z" fill="black"/>
<path d="M61.1533 147.25H83.8503V148.15H61.1533V147.25Z" fill="black"/>
<path d="M71.75 331.5H83C90.875 331.5 94.25 327 94.25 320.25V297.75C94.25 291 90.875 286.5 83 286.5H65C57.125 286.5 53.75 291 53.75 297.75V313.5" stroke="#0D4A64" stroke-width="3" stroke-miterlimit="10" stroke-linecap="round" stroke-linejoin="round"/>
<path d="M79.625 292.125V296.625C79.625 299.1 81.65 301.125 84.125 301.125H88.625" stroke="#0D4A64" stroke-width="3" stroke-miterlimit="10" stroke-linecap="round" stroke-linejoin="round"/>
<path d="M56 320.25L51.5 324.75L56 329.25" stroke="#0D4A64" stroke-width="3" stroke-miterlimit="10" stroke-linecap="round" stroke-linejoin="round"/>
<path d="M62.75 320.25L67.25 324.75L62.75 329.25" stroke="#0D4A64" stroke-width="3" stroke-miterlimit="10" stroke-linecap="round" stroke-linejoin="round"/>
<defs>
<linearGradient id="paint0_linear_7_202" x1="133.997" y1="369.011" x2="13.9945" y2="369.011" gradientUnits="userSpaceOnUse">
<stop stop-color="white"/>
<stop offset="1" stop-color="#D6D6D6"/>
</linearGradient>
</defs>
</svg>
