<svg width="147" height="379" viewBox="0 0 147 379" fill="none" xmlns="http://www.w3.org/2000/svg">
<rect x="69" y="143" width="9" height="68" fill="#F08500"/>
<circle cx="73.5" cy="73.5" r="73.5" fill="#F08500"/>
<circle cx="74" cy="74" r="60" fill="url(#paint0_linear_7_205)"/>
<circle cx="73.5" cy="73.5" r="52.5" stroke="#F08500" stroke-width="2"/>
<circle cx="73" cy="374" r="5" transform="rotate(-180 73 374)" fill="#F08500"/>
<circle cx="73" cy="354" r="5" transform="rotate(-180 73 354)" fill="#F08500"/>
<circle cx="73" cy="318" r="21" transform="rotate(-180 73 318)" fill="#D9D9D9"/>
<circle cx="73" cy="318" r="17" transform="rotate(-180 73 318)" fill="#F08500"/>
<circle cx="73" cy="318" r="9" transform="rotate(-180 73 318)" fill="#F08500" stroke="white"/>
<circle cx="73" cy="240" r="37" fill="white"/>
<circle cx="73" cy="240" r="29" fill="#F08500"/>
<circle cx="73" cy="240" r="19" fill="white"/>
<path d="M67.2631 246.216C66.2311 246.216 65.3071 245.964 64.4911 245.46C63.6751 244.944 63.0331 244.2 62.5651 243.228C62.0971 242.256 61.8631 241.08 61.8631 239.7C61.8631 238.32 62.0971 237.144 62.5651 236.172C63.0331 235.2 63.6751 234.462 64.4911 233.958C65.3071 233.442 66.2311 233.184 67.2631 233.184C68.3071 233.184 69.2311 233.442 70.0351 233.958C70.8511 234.462 71.4931 235.2 71.9611 236.172C72.4291 237.144 72.6631 238.32 72.6631 239.7C72.6631 241.08 72.4291 242.256 71.9611 243.228C71.4931 244.2 70.8511 244.944 70.0351 245.46C69.2311 245.964 68.3071 246.216 67.2631 246.216ZM67.2631 243.75C67.7551 243.75 68.1811 243.612 68.5411 243.336C68.9131 243.06 69.2011 242.622 69.4051 242.022C69.6211 241.422 69.7291 240.648 69.7291 239.7C69.7291 238.752 69.6211 237.978 69.4051 237.378C69.2011 236.778 68.9131 236.34 68.5411 236.064C68.1811 235.788 67.7551 235.65 67.2631 235.65C66.7831 235.65 66.3571 235.788 65.9851 236.064C65.6251 236.34 65.3371 236.778 65.1211 237.378C64.9171 237.978 64.8151 238.752 64.8151 239.7C64.8151 240.648 64.9171 241.422 65.1211 242.022C65.3371 242.622 65.6251 243.06 65.9851 243.336C66.3571 243.612 66.7831 243.75 67.2631 243.75ZM79.7139 246.216C78.5619 246.216 77.5599 245.976 76.7079 245.496C75.8679 245.016 75.2199 244.314 74.7639 243.39C74.3079 242.466 74.0799 241.326 74.0799 239.97C74.0799 238.518 74.3499 237.288 74.8899 236.28C75.4419 235.272 76.1979 234.504 77.1579 233.976C78.1299 233.448 79.2459 233.184 80.5059 233.184C81.1779 233.184 81.8199 233.256 82.4319 233.4C83.0439 233.544 83.5719 233.76 84.0159 234.048L82.9359 236.19C82.5879 235.95 82.2159 235.788 81.8199 235.704C81.4239 235.608 81.0099 235.56 80.5779 235.56C79.4859 235.56 78.6219 235.89 77.9859 236.55C77.3499 237.21 77.0319 238.188 77.0319 239.484C77.0319 239.7 77.0319 239.94 77.0319 240.204C77.0439 240.468 77.0799 240.732 77.1399 240.996L76.3299 240.24C76.5579 239.772 76.8519 239.382 77.2119 239.07C77.5719 238.746 77.9979 238.506 78.4899 238.35C78.9939 238.182 79.5459 238.098 80.1459 238.098C80.9619 238.098 81.6939 238.26 82.3419 238.584C82.9899 238.908 83.5059 239.364 83.8899 239.952C84.2859 240.54 84.4839 241.23 84.4839 242.022C84.4839 242.874 84.2679 243.618 83.8359 244.254C83.4159 244.878 82.8459 245.364 82.1259 245.712C81.4179 246.048 80.6139 246.216 79.7139 246.216ZM79.5519 244.038C79.9599 244.038 80.3199 243.966 80.6319 243.822C80.9559 243.666 81.2079 243.444 81.3879 243.156C81.5679 242.868 81.6579 242.538 81.6579 242.166C81.6579 241.59 81.4599 241.134 81.0639 240.798C80.6799 240.45 80.1639 240.276 79.5159 240.276C79.0839 240.276 78.7059 240.36 78.3819 240.528C78.0579 240.684 77.7999 240.906 77.6079 241.194C77.4279 241.47 77.3379 241.794 77.3379 242.166C77.3379 242.526 77.4279 242.85 77.6079 243.138C77.7879 243.414 78.0399 243.636 78.3639 243.804C78.6879 243.96 79.0839 244.038 79.5519 244.038Z" fill="black"/>
<path d="M61.1611 248.25H84.8439V249.15H61.1611V248.25Z" fill="black"/>
<path d="M56.585 71.7949V82.9774C56.585 87.0724 56.585 87.0724 60.455 89.6824L71.0975 95.8249C72.695 96.7474 75.305 96.7474 76.9025 95.8249L87.545 89.6824C91.415 87.0724 91.415 87.0724 91.415 82.9774V71.7949C91.415 67.6999 91.415 67.6999 87.545 65.0899L76.9025 58.9474C75.305 58.0249 72.695 58.0249 71.0975 58.9474L60.455 65.0899C56.585 67.6999 56.585 67.6999 56.585 71.7949Z" stroke="#0D4A64" stroke-width="3" stroke-linecap="round" stroke-linejoin="round"/>
<path d="M86.375 64.1675V58.25C86.375 53.75 84.125 51.5 79.625 51.5H68.375C63.875 51.5 61.625 53.75 61.625 58.25V64.01" stroke="#0D4A64" stroke-width="3" stroke-linecap="round" stroke-linejoin="round"/>
<path d="M75.4176 71.7274L76.7001 73.7299C76.9026 74.0449 77.3526 74.3599 77.6901 74.4499L79.9851 75.0349C81.4026 75.3949 81.7851 76.6099 80.8626 77.7349L79.3551 79.5574C79.1301 79.8499 78.9501 80.3674 78.9726 80.7274L79.1076 83.0899C79.1976 84.5524 78.1626 85.2949 76.8126 84.7549L74.6076 83.8774C74.2701 83.7424 73.7076 83.7424 73.3701 83.8774L71.1651 84.7549C69.8151 85.2949 68.7801 84.5299 68.8701 83.0899L69.0051 80.7274C69.0276 80.3674 68.8476 79.8274 68.6226 79.5574L67.1151 77.7349C66.1926 76.6099 66.5751 75.3949 67.9926 75.0349L70.2876 74.4499C70.6476 74.3599 71.0976 74.0224 71.2776 73.7299L72.5601 71.7274C73.3701 70.5124 74.6301 70.5124 75.4176 71.7274Z" stroke="#0D4A64" stroke-width="3" stroke-linecap="round" stroke-linejoin="round"/>
<defs>
<linearGradient id="paint0_linear_7_205" x1="133.997" y1="134.011" x2="13.9945" y2="134.011" gradientUnits="userSpaceOnUse">
<stop stop-color="white"/>
<stop offset="1" stop-color="#D6D6D6"/>
</linearGradient>
</defs>
</svg>
