<svg width="147" height="379" viewBox="0 0 147 379" fill="none" xmlns="http://www.w3.org/2000/svg">
<rect x="69" y="143" width="9" height="68" fill="#1DAFAA"/>
<circle cx="73.5" cy="73.5" r="73.5" fill="#1DAFAA"/>
<circle cx="74" cy="74" r="60" fill="url(#paint0_linear_7_201)"/>
<circle cx="73.5" cy="73.5" r="52.5" stroke="#1DAFAA" stroke-width="2"/>
<circle cx="73" cy="374" r="5" transform="rotate(-180 73 374)" fill="#1DAFAA"/>
<circle cx="73" cy="354" r="5" transform="rotate(-180 73 354)" fill="#1DAFAA"/>
<circle cx="73" cy="318" r="21" transform="rotate(-180 73 318)" fill="#D9D9D9"/>
<circle cx="73" cy="318" r="17" transform="rotate(-180 73 318)" fill="#1DAFAA"/>
<circle cx="73" cy="318" r="9" transform="rotate(-180 73 318)" fill="#1DAFAA" stroke="white"/>
<circle cx="73" cy="240" r="37" fill="white"/>
<circle cx="73" cy="240" r="29" fill="#1DAFAA"/>
<circle cx="73" cy="240" r="19" fill="white"/>
<path d="M68.2202 246.216C67.1882 246.216 66.2642 245.964 65.4482 245.46C64.6322 244.944 63.9902 244.2 63.5222 243.228C63.0542 242.256 62.8202 241.08 62.8202 239.7C62.8202 238.32 63.0542 237.144 63.5222 236.172C63.9902 235.2 64.6322 234.462 65.4482 233.958C66.2642 233.442 67.1882 233.184 68.2202 233.184C69.2642 233.184 70.1882 233.442 70.9922 233.958C71.8082 234.462 72.4502 235.2 72.9182 236.172C73.3862 237.144 73.6202 238.32 73.6202 239.7C73.6202 241.08 73.3862 242.256 72.9182 243.228C72.4502 244.2 71.8082 244.944 70.9922 245.46C70.1882 245.964 69.2642 246.216 68.2202 246.216ZM68.2202 243.75C68.7122 243.75 69.1382 243.612 69.4982 243.336C69.8702 243.06 70.1582 242.622 70.3622 242.022C70.5782 241.422 70.6862 240.648 70.6862 239.7C70.6862 238.752 70.5782 237.978 70.3622 237.378C70.1582 236.778 69.8702 236.34 69.4982 236.064C69.1382 235.788 68.7122 235.65 68.2202 235.65C67.7402 235.65 67.3142 235.788 66.9422 236.064C66.5822 236.34 66.2942 236.778 66.0782 237.378C65.8742 237.978 65.7722 238.752 65.7722 239.7C65.7722 240.648 65.8742 241.422 66.0782 242.022C66.2942 242.622 66.5822 243.06 66.9422 243.336C67.3142 243.612 67.7402 243.75 68.2202 243.75ZM74.8586 246V244.11L79.7186 239.52C80.1026 239.172 80.3846 238.86 80.5646 238.584C80.7446 238.308 80.8646 238.056 80.9246 237.828C80.9966 237.6 81.0326 237.39 81.0326 237.198C81.0326 236.694 80.8586 236.31 80.5106 236.046C80.1746 235.77 79.6766 235.632 79.0166 235.632C78.4886 235.632 77.9966 235.734 77.5406 235.938C77.0966 236.142 76.7186 236.46 76.4066 236.892L74.2826 235.524C74.7626 234.804 75.4346 234.234 76.2986 233.814C77.1626 233.394 78.1586 233.184 79.2866 233.184C80.2226 233.184 81.0386 233.34 81.7346 233.652C82.4426 233.952 82.9886 234.378 83.3726 234.93C83.7686 235.482 83.9666 236.142 83.9666 236.91C83.9666 237.318 83.9126 237.726 83.8046 238.134C83.7086 238.53 83.5046 238.95 83.1926 239.394C82.8926 239.838 82.4486 240.336 81.8606 240.888L77.8286 244.686L77.2706 243.624H84.3806V246H74.8586Z" fill="black"/>
<path d="M62.1182 248.25H84.8846V249.15H62.1182V248.25Z" fill="black"/>
<path d="M94.25 62.75V85.25C94.25 92 90.875 96.5 83 96.5H65C57.125 96.5 53.75 92 53.75 85.25V62.75C53.75 56 57.125 51.5 65 51.5H83C90.875 51.5 94.25 56 94.25 62.75Z" stroke="#0D4A64" stroke-width="3" stroke-miterlimit="10" stroke-linecap="round" stroke-linejoin="round"/>
<path d="M79.625 57.125V61.625C79.625 64.1 81.65 66.125 84.125 66.125H88.625" stroke="#0D4A64" stroke-width="3" stroke-miterlimit="10" stroke-linecap="round" stroke-linejoin="round"/>
<path d="M65 76.25H74" stroke="#0D4A64" stroke-width="3" stroke-miterlimit="10" stroke-linecap="round" stroke-linejoin="round"/>
<path d="M65 85.25H83" stroke="#0D4A64" stroke-width="3" stroke-miterlimit="10" stroke-linecap="round" stroke-linejoin="round"/>
<defs>
<linearGradient id="paint0_linear_7_201" x1="133.997" y1="134.011" x2="13.9945" y2="134.011" gradientUnits="userSpaceOnUse">
<stop stop-color="white"/>
<stop offset="1" stop-color="#D6D6D6"/>
</linearGradient>
</defs>
</svg>
