<svg width="147" height="382" viewBox="0 0 147 382" fill="none" xmlns="http://www.w3.org/2000/svg">
<rect x="69" y="172" width="9" height="68" fill="#F8B312"/>
<circle cx="73.5" cy="308.5" r="73.5" fill="#F8B312"/>
<circle cx="74" cy="309" r="60" fill="url(#paint0_linear_7_204)"/>
<circle cx="73.5" cy="308.5" r="52.5" stroke="#F8B312" stroke-width="2"/>
<circle cx="73" cy="5" r="5" fill="#F8B312"/>
<circle cx="73" cy="25" r="5" fill="#F8B312"/>
<circle cx="73" cy="61" r="21" fill="#D9D9D9"/>
<circle cx="73" cy="61" r="17" fill="#F8B312"/>
<circle cx="73" cy="61" r="9" fill="#F8B312" stroke="white"/>
<circle cx="73" cy="139" r="37" fill="white"/>
<circle cx="73" cy="139" r="29" fill="#F8B312"/>
<circle cx="73" cy="139" r="19" fill="white"/>
<path d="M67.1411 145.216C66.1091 145.216 65.1851 144.964 64.3691 144.46C63.5531 143.944 62.9111 143.2 62.4431 142.228C61.9751 141.256 61.7411 140.08 61.7411 138.7C61.7411 137.32 61.9751 136.144 62.4431 135.172C62.9111 134.2 63.5531 133.462 64.3691 132.958C65.1851 132.442 66.1091 132.184 67.1411 132.184C68.1851 132.184 69.1091 132.442 69.9131 132.958C70.7291 133.462 71.3711 134.2 71.8391 135.172C72.3071 136.144 72.5411 137.32 72.5411 138.7C72.5411 140.08 72.3071 141.256 71.8391 142.228C71.3711 143.2 70.7291 143.944 69.9131 144.46C69.1091 144.964 68.1851 145.216 67.1411 145.216ZM67.1411 142.75C67.6331 142.75 68.0591 142.612 68.4191 142.336C68.7911 142.06 69.0791 141.622 69.2831 141.022C69.4991 140.422 69.6071 139.648 69.6071 138.7C69.6071 137.752 69.4991 136.978 69.2831 136.378C69.0791 135.778 68.7911 135.34 68.4191 135.064C68.0591 134.788 67.6331 134.65 67.1411 134.65C66.6611 134.65 66.2351 134.788 65.8631 135.064C65.5031 135.34 65.2151 135.778 64.9991 136.378C64.7951 136.978 64.6931 137.752 64.6931 138.7C64.6931 139.648 64.7951 140.422 64.9991 141.022C65.2151 141.622 65.5031 142.06 65.8631 142.336C66.2351 142.612 66.6611 142.75 67.1411 142.75ZM78.2419 145.216C77.3659 145.216 76.4959 145.102 75.6319 144.874C74.7799 144.634 74.0479 144.298 73.4359 143.866L74.5879 141.634C75.0679 141.982 75.6199 142.258 76.2439 142.462C76.8799 142.666 77.5219 142.768 78.1699 142.768C78.9019 142.768 79.4779 142.624 79.8979 142.336C80.3179 142.048 80.5279 141.646 80.5279 141.13C80.5279 140.806 80.4439 140.518 80.2759 140.266C80.1079 140.014 79.8079 139.822 79.3759 139.69C78.9559 139.558 78.3619 139.492 77.5939 139.492H74.3719L75.0199 132.4H82.7059V134.74H76.0639L77.5759 133.408L77.1259 138.466L75.6139 137.134H78.2779C79.5259 137.134 80.5279 137.308 81.2839 137.656C82.0519 137.992 82.6099 138.454 82.9579 139.042C83.3059 139.63 83.4799 140.296 83.4799 141.04C83.4799 141.784 83.2939 142.474 82.9219 143.11C82.5499 143.734 81.9739 144.244 81.1939 144.64C80.4259 145.024 79.4419 145.216 78.2419 145.216Z" fill="black"/>
<path d="M61.0391 147.25H83.9659V148.15H61.0391V147.25Z" fill="black"/>
<path d="M74 322.95C78.9706 322.95 83 318.921 83 313.95C83 308.979 78.9706 304.95 74 304.95C69.0294 304.95 65 308.979 65 313.95C65 318.921 69.0294 322.95 74 322.95Z" stroke="#0D4A64" stroke-width="3" stroke-miterlimit="10" stroke-linecap="round" stroke-linejoin="round"/>
<path d="M70.4899 314.175L71.9524 315.638C72.3799 316.065 73.0774 316.065 73.5049 315.66L77.5099 311.97" stroke="#0D4A64" stroke-width="3" stroke-linecap="round" stroke-linejoin="round"/>
<path d="M65.0002 331.5H83.0002C92.0452 331.5 93.6652 327.878 94.1377 323.468L95.8252 305.468C96.4327 299.978 94.8577 295.5 85.2502 295.5H62.7502C53.1427 295.5 51.5677 299.978 52.1752 305.468L53.8627 323.468C54.3352 327.878 55.9552 331.5 65.0002 331.5Z" stroke="#0D4A64" stroke-width="3" stroke-miterlimit="10" stroke-linecap="round" stroke-linejoin="round"/>
<path d="M65 295.5V293.7C65 289.717 65 286.5 72.2 286.5H75.8C83 286.5 83 289.717 83 293.7V295.5" stroke="#0D4A64" stroke-width="3" stroke-miterlimit="10" stroke-linecap="round" stroke-linejoin="round"/>
<path d="M95.7125 306.75C91.82 309.585 87.5 311.565 83.0225 312.69" stroke="#0D4A64" stroke-width="3" stroke-miterlimit="10" stroke-linecap="round" stroke-linejoin="round"/>
<path d="M52.8953 307.358C56.6528 309.923 60.7478 311.745 65.0003 312.78" stroke="#0D4A64" stroke-width="3" stroke-miterlimit="10" stroke-linecap="round" stroke-linejoin="round"/>
<defs>
<linearGradient id="paint0_linear_7_204" x1="133.997" y1="369.011" x2="13.9945" y2="369.011" gradientUnits="userSpaceOnUse">
<stop stop-color="white"/>
<stop offset="1" stop-color="#D6D6D6"/>
</linearGradient>
</defs>
</svg>
