<svg width="1120" height="35" viewBox="0 0 1120 35" fill="none" xmlns="http://www.w3.org/2000/svg">
<path d="M884 17.5C884 7.83502 891.835 0 901.5 0L1100 0L1119.5 17.5L1100 35H901.5C891.835 35 884 27.165 884 17.5Z" fill="#F08500"/>
<path d="M717 17.5C717 7.83502 724.835 0 734.5 0L933 0L952.5 17.5L933 35H734.5C724.835 35 717 27.165 717 17.5Z" fill="#F8B312"/>
<path d="M537 17.5C537 7.83502 544.835 0 554.5 0L753 0L772.5 17.5L753 35H554.5C544.835 35 537 27.165 537 17.5Z" fill="#FBD738"/>
<path d="M357 17.5C357 7.83502 364.835 0 374.5 0L573 0L592.5 17.5L573 35H374.5C364.835 35 357 27.165 357 17.5Z" fill="#C1D22E"/>
<path d="M170 17.5C170 7.83502 177.835 0 187.5 0L386 0L405.5 17.5L386 35H187.5C177.835 35 170 27.165 170 17.5Z" fill="#1DAFAA"/>
<path d="M0 17.5C0 7.83502 7.83502 0 17.5 0L196 0L215.5 17.5L196 35H17.5C7.83502 35 0 27.165 0 17.5Z" fill="#FBD738"/>
</svg>
