<svg width="50" height="56" viewBox="0 0 50 56" fill="none" xmlns="http://www.w3.org/2000/svg">
<path d="M35.3648 22.8853C35.3648 22.2807 34.8747 21.7906 34.2697 21.7906H24.6389C24.0343 21.7906 23.5442 22.2807 23.5442 22.8853C23.5442 23.4899 24.0343 23.98 24.6389 23.98H34.2697C34.8743 23.98 35.3648 23.4899 35.3648 22.8853Z" fill="#0D4A64"/>
<path d="M14.5111 10.8425H12.482C11.2314 10.8425 10.2145 11.8582 10.2145 13.1062V14.1599H9.15909C7.90846 14.1599 6.89111 15.1772 6.89111 16.427V18.4579C6.89111 19.7076 7.90846 20.7246 9.15909 20.7246H10.2145V21.7782C10.2145 23.0284 11.2314 24.0453 12.482 24.0453H14.5111C15.7618 24.0453 16.7791 23.0284 16.7791 21.7782V20.7246H17.8345C19.0847 20.7246 20.102 19.7076 20.102 18.4579V16.427C20.102 15.1772 19.0847 14.1599 17.8345 14.1599H16.7791V13.1062C16.7791 11.8582 15.7618 10.8425 14.5111 10.8425ZM17.8341 16.3497C17.8751 16.3497 17.9123 16.3864 17.9123 16.427V18.4579C17.9123 18.498 17.8751 18.5348 17.8341 18.5348H15.684C15.0794 18.5348 14.5893 19.0253 14.5893 19.6299V21.7782C14.5893 21.8188 14.5522 21.8556 14.5111 21.8556H12.482C12.4414 21.8556 12.4042 21.8188 12.4042 21.7782V19.6299C12.4042 19.0253 11.9137 18.5348 11.3091 18.5348H9.15909C9.11807 18.5348 9.0809 18.498 9.0809 18.4579V16.427C9.0809 16.3864 9.11807 16.3497 9.15909 16.3497H11.3091C11.9137 16.3497 12.4042 15.8596 12.4042 15.255V13.1062C12.4042 13.0682 12.4418 13.0323 12.482 13.0323H14.5111C14.5513 13.0323 14.5893 13.0682 14.5893 13.1062V15.255C14.5893 15.8596 15.0794 16.3497 15.684 16.3497H17.8341Z" fill="#0D4A64"/>
<path d="M35.8425 16.3521C35.8425 15.7475 35.3524 15.2574 34.7478 15.2574H24.6389C24.0343 15.2574 23.5442 15.7475 23.5442 16.3521C23.5442 16.9571 24.0343 17.4472 24.6389 17.4472H34.7478C35.3524 17.4472 35.8425 16.9571 35.8425 16.3521Z" fill="#0D4A64"/>
<path d="M8.72157 30.51H33.789C34.3936 30.51 34.8836 30.0195 34.8836 29.4149C34.8836 28.8103 34.3936 28.3202 33.789 28.3202H8.72157C8.11698 28.3202 7.62646 28.8103 7.62646 29.4149C7.62646 30.0195 8.11698 30.51 8.72157 30.51Z" fill="#0D4A64"/>
<path d="M48.6205 34.5897C46.0381 34.1953 43.9384 33.6659 42.3366 33.0062V23.4869C42.3366 22.8819 41.8465 22.3918 41.2415 22.3918C40.6369 22.3918 40.1468 22.8819 40.1468 23.4869V31.8C39.9024 31.6133 39.6849 31.4206 39.4956 31.2202C39.2888 31.0018 39.0013 30.8779 38.7005 30.8779C38.3997 30.8779 38.1117 31.0018 37.9053 31.2202C36.4547 32.7537 33.3835 33.8872 28.7774 34.5897C28.5638 34.6221 28.3732 34.7157 28.2207 34.8499H8.72155C8.11695 34.8499 7.62644 35.34 7.62644 35.9445C7.62644 36.5491 8.11695 37.0392 8.72155 37.0392H27.8472V41.3795H7.9862C7.38161 41.3795 6.8911 41.8696 6.8911 42.4742C6.8911 43.0788 7.38161 43.5688 7.9862 43.5688H27.9348C28.2959 46.3115 29.5713 48.8679 31.7402 51.1987H5.31146C3.58997 51.1987 2.18979 49.8011 2.18979 48.083V7.72386C2.18979 6.00578 3.58997 4.60817 5.31146 4.60817H10.537V5.01408C10.537 6.122 11.4403 7.02355 12.5504 7.02355H29.7862C30.8963 7.02355 31.7995 6.122 31.7995 5.01408V4.60817H37.0251C38.7466 4.60817 40.1472 6.00578 40.1472 7.72386V14.7525C40.1472 15.3571 40.6373 15.8476 41.2419 15.8476C41.8465 15.8476 42.3366 15.3571 42.3366 14.7525V7.72386C42.3366 4.7983 39.9541 2.41838 37.0251 2.41838H31.7995V2.00948C31.7995 0.901551 30.8963 0 29.7862 0H12.5504C11.4403 0 10.537 0.901551 10.537 2.00948V2.41838H5.31146C2.38291 2.41838 0 4.7983 0 7.72386V48.083C0 51.0086 2.38249 53.3885 5.31146 53.3885H34.0927C36.0638 55.0796 37.2806 56.0021 38.6932 56.0038H38.6975C40.2865 56.0038 41.6247 54.8459 44.0525 52.7463C47.4831 49.7763 49.3324 46.3897 49.5486 42.6805C49.5498 42.6596 49.5507 42.6382 49.5507 42.6169V35.6719C49.5503 35.131 49.1555 34.6713 48.6205 34.5897ZM12.7268 2.18979H29.6098V4.83377H12.7268V2.18979ZM47.3609 42.584C47.1712 45.6689 45.5758 48.5308 42.6194 51.0902C40.7236 52.7305 39.4708 53.8141 38.6971 53.8141C38.6971 53.8141 38.6966 53.8141 38.6962 53.8141C37.928 53.8132 36.7435 52.7882 34.7815 51.0906C31.8252 48.5312 30.2293 45.6698 30.037 42.584V36.6034C34.0406 35.9138 36.8944 34.8759 38.7005 33.4493C39.2636 33.8936 39.9285 34.3008 40.6984 34.6713C40.748 34.6999 40.8001 34.7238 40.8539 34.7443C42.5314 35.5271 44.6896 36.1428 47.3609 36.6034V42.584Z" fill="#0D4A64"/>
<path d="M37.4224 44.5272L35.4967 42.7206C35.0557 42.307 34.3627 42.3288 33.9491 42.7702C33.535 43.2112 33.5573 43.9038 33.9982 44.3178L36.7349 46.8849C36.9383 47.0759 37.2062 47.1814 37.4839 47.1814C37.4984 47.1814 37.513 47.181 37.5275 47.1805C37.8202 47.169 38.0966 47.0404 38.294 46.8233L43.8448 40.7214C44.252 40.2741 44.2191 39.5814 43.7717 39.1747C43.3244 38.7675 42.6317 38.8004 42.225 39.2477L37.4224 44.5272Z" fill="#0D4A64"/>
<path d="M41.2417 18.0044C40.6371 18.0044 40.147 18.4949 40.147 19.0995V19.1179C40.147 19.7225 40.6371 20.2126 41.2417 20.2126C41.8467 20.2126 42.3368 19.7225 42.3368 19.1179V19.0995C42.3368 18.4949 41.8467 18.0044 41.2417 18.0044Z" fill="#0D4A64"/>
</svg>
