<svg width="59" height="54" viewBox="0 0 59 54" fill="none" xmlns="http://www.w3.org/2000/svg">
<path d="M4.75169 0C3.07804 0 1.51874 0.64888 0.623495 2.13861C0.216784 2.8157 0 3.59921 0 4.38906V40.0173C0 42.4374 1.96885 44.4062 4.38895 44.4062H40.7623V45.6635C40.7623 47.2186 41.73 48.5512 43.0944 49.0931C42.9304 49.4827 42.8395 49.9102 42.8395 50.3586C42.8395 52.163 44.3075 53.6309 46.1118 53.6309C47.9161 53.6309 49.3841 52.163 49.3841 50.3586C49.3841 50.0078 49.328 49.6699 49.2252 49.3528H51.6349C51.5322 49.6699 51.476 50.0078 51.476 50.3586C51.476 52.163 52.944 53.6309 54.7483 53.6309C56.5526 53.6309 58.0207 52.1631 58.0207 50.3588C58.0207 48.5545 56.5527 47.0865 54.7484 47.0865H44.4516C43.667 47.0865 43.0287 46.4481 43.0287 45.6635V44.4062H54.9363C55.4746 44.4062 55.9386 44.0275 56.0465 43.5002L57.9975 33.9637C58.0658 33.6302 57.9805 33.2837 57.7653 33.02C57.5502 32.7564 57.2277 32.6033 56.8873 32.6033H49.0829V4.38906C49.0829 1.89927 47.0068 0.0180181 44.5769 0.000113259L4.75169 0ZM50.1101 34.8697L49.8735 37.3715H47.0126L46.776 34.8702L50.1101 34.8697ZM47.4635 42.1399L47.2269 39.6381H49.6591L49.4225 42.1399H47.4635ZM41.2235 34.8702H44.4994L44.736 37.3715H41.7688L41.2235 34.8702ZM42.2628 39.638H44.9503L45.1869 42.1398H42.8083L42.2628 39.638ZM51.699 42.1399L51.9356 39.6381H54.5233L54.0115 42.1399H51.699ZM54.987 37.3715H52.15L52.3866 34.8697H55.4989L54.987 37.3715ZM46.8161 4.38951V6.53775H8.25004C8.61233 5.88876 8.80373 5.14503 8.80373 4.40198C8.80373 3.6587 8.61188 2.91599 8.25015 2.26655H44.6612C45.8275 2.31357 46.8161 3.17538 46.8161 4.38951ZM4.17964 2.27822C4.22202 2.27414 4.26508 2.27278 4.30815 2.2713C4.3341 2.27017 4.3596 2.26757 4.38577 2.26734C4.39325 2.26734 4.40073 2.267 4.40821 2.26689C5.58279 2.2704 6.5373 3.22672 6.5373 4.40209C6.5373 4.69639 6.47746 4.97708 6.36924 5.2324C6.04457 5.99857 5.28498 6.53741 4.40198 6.53741C3.22445 6.53741 2.26643 5.5795 2.26643 4.40198C2.26643 3.29959 3.10626 2.38984 4.17964 2.27822ZM4.38895 42.1399C3.21856 42.1399 2.26643 41.1878 2.26643 40.0174V8.24936C2.89559 8.59998 3.61881 8.80112 4.38827 8.8035C4.3928 8.8035 4.39722 8.80418 4.40175 8.80418H46.8166V32.6034H35.9773C35.3515 32.6034 34.8441 33.1109 34.8441 33.7366C34.8441 34.3624 35.3515 34.8699 35.9773 34.8699H38.9036L40.4882 42.1399H4.38895ZM47.1176 50.3588C47.1176 50.9135 46.6664 51.3646 46.1118 51.3646C45.5572 51.3646 45.106 50.9135 45.106 50.3588C45.106 49.8041 45.5572 49.3529 46.1118 49.3529C46.6664 49.3529 47.1176 49.8041 47.1176 50.3588ZM54.7484 51.3646C54.1938 51.3646 53.7425 50.9135 53.7425 50.3588C53.7425 49.8041 54.1938 49.3529 54.7484 49.3529C55.303 49.3529 55.7542 49.8041 55.7542 50.3588C55.7542 50.9135 55.303 51.3646 54.7484 51.3646Z" fill="#0D4A64"/>
<path d="M31.6322 18.942H39.4442C41.369 18.942 42.935 17.3761 42.935 15.4512C42.935 13.5263 41.3691 11.9603 39.4442 11.9603H31.6322C29.7074 11.9603 28.1414 13.5263 28.1414 15.4512C28.1414 17.3761 29.7074 18.942 31.6322 18.942ZM31.6322 14.2268H39.4442C40.1193 14.2268 40.6686 14.776 40.6686 15.4512C40.6686 16.1263 40.1193 16.6755 39.4442 16.6755H31.6322C30.9571 16.6755 30.4079 16.1263 30.4079 15.4512C30.4079 14.776 30.9571 14.2268 31.6322 14.2268Z" fill="#0D4A64"/>
<path d="M12.6199 31.0559C11.994 31.0559 11.4867 31.5634 11.4867 32.1891C11.4867 32.8149 11.994 33.3223 12.6199 33.3223H18.0811C18.707 33.3223 19.2143 32.8149 19.2143 32.1891C19.2143 31.5634 18.707 31.0559 18.0811 31.0559H12.6199Z" fill="#0D4A64"/>
<path d="M41.4577 21.5875H30.3959C29.77 21.5875 29.2626 22.095 29.2626 22.7207C29.2626 23.3465 29.77 23.854 30.3959 23.854H41.4577C42.0836 23.854 42.591 23.3465 42.591 22.7207C42.591 22.095 42.0836 21.5875 41.4577 21.5875Z" fill="#0D4A64"/>
<path d="M41.4577 26.2731H30.3959C29.77 26.2731 29.2626 26.7805 29.2626 27.4063C29.2626 28.0321 29.77 28.5395 30.3959 28.5395H41.4577C42.0836 28.5395 42.591 28.0321 42.591 27.4063C42.591 26.7805 42.0836 26.2731 41.4577 26.2731Z" fill="#0D4A64"/>
<path d="M23.7363 31.5603C23.3924 31.0485 22.6791 30.9042 22.1645 31.2463C21.6495 31.5887 21.5113 32.3049 21.8518 32.8181C22.1936 33.3332 22.9093 33.4712 23.4224 33.1308C23.9368 32.7896 24.0781 32.0733 23.7363 31.5603Z" fill="#0D4A64"/>
<path d="M30.5425 36.3239H7.67045C7.04457 36.3239 6.53723 36.8313 6.53723 37.4571C6.53723 38.0828 7.04457 38.5903 7.67045 38.5903H30.5425C31.1684 38.5903 31.6757 38.0828 31.6757 37.4571C31.6757 36.8313 31.1682 36.3239 30.5425 36.3239Z" fill="#0D4A64"/>
<path d="M6.54256 27.5109C6.59548 28.0855 7.09319 28.5394 7.67045 28.5394H23.1309C23.7475 28.5394 24.2641 28.0229 24.2641 27.4062V12.7615C24.2641 12.1358 23.7568 11.6283 23.1309 11.6283H7.67045C7.04457 11.6283 6.53723 12.1358 6.53723 12.7615V27.4062C6.53723 27.4411 6.53927 27.4763 6.54256 27.5109ZM10.5146 26.2731L15.4007 21.6448L20.2868 26.2731H10.5146ZM21.9977 13.8947V24.7719L16.18 19.2611C15.743 18.847 15.0584 18.847 14.6214 19.2611L8.80366 24.7719V13.8947H21.9977Z" fill="#0D4A64"/>
<path d="M17.7393 17.6704C18.1246 18.5946 19.4808 18.5809 19.8423 17.6444C20.2135 16.6827 19.1558 15.7566 18.2514 16.2379C17.742 16.509 17.5215 17.1387 17.7393 17.6704Z" fill="#0D4A64"/>
</svg>
