<svg width="51" height="48" viewBox="0 0 51 48" fill="none" xmlns="http://www.w3.org/2000/svg">
<path d="M9.20338 4.25671C7.3685 4.25671 5.87573 5.74899 5.87573 7.58308C5.87573 9.41717 7.3685 10.9094 9.20338 10.9094C11.0397 10.9094 12.5338 9.41717 12.5338 7.58308C12.5338 5.74899 11.0397 4.25671 9.20338 4.25671ZM9.20338 8.92565C8.4624 8.92565 7.85963 8.32337 7.85963 7.58308C7.85963 6.8428 8.4624 6.24061 9.20338 6.24061C9.94583 6.24061 10.55 6.84289 10.55 7.58318C10.55 8.32346 9.94583 8.92565 9.20338 8.92565Z" fill="#0D4A64"/>
<path d="M38.2994 4.25671H29.5028C27.6679 4.25671 26.1752 5.74899 26.1752 7.58308C26.1752 9.41717 27.6679 10.9094 29.5028 10.9094H38.2994C40.1343 10.9094 41.627 9.41717 41.627 7.58308C41.627 5.74899 40.1343 4.25671 38.2994 4.25671ZM38.2994 8.92565H29.5028C28.7618 8.92565 28.1591 8.32337 28.1591 7.58308C28.1591 6.8428 28.7619 6.24051 29.5028 6.24051H38.2994C39.0404 6.24051 39.6431 6.8428 39.6431 7.58308C39.6431 8.32337 39.0404 8.92565 38.2994 8.92565Z" fill="#0D4A64"/>
<path d="M17.827 4.25671C15.9922 4.25671 14.4994 5.74899 14.4994 7.58308C14.4994 9.41717 15.9922 10.9094 17.827 10.9094C19.6634 10.9094 21.1574 9.41717 21.1574 7.58308C21.1574 5.74899 19.6634 4.25671 17.827 4.25671ZM17.827 8.92565C17.0861 8.92565 16.4833 8.32337 16.4833 7.58308C16.4833 6.8428 17.0862 6.24051 17.827 6.24051C18.5695 6.24051 19.1736 6.8428 19.1736 7.58308C19.1736 8.32337 18.5695 8.92565 17.827 8.92565Z" fill="#0D4A64"/>
<path d="M16.2096 20.7005C15.677 20.5729 15.1416 20.9017 15.0143 21.4346L13.0464 29.6695C12.9191 30.2023 13.2478 30.7375 13.7806 30.8648C13.8581 30.8833 13.9357 30.8922 14.0121 30.8922C14.4605 30.8922 14.8671 30.5859 14.9759 30.1306L16.9438 21.8958C17.0712 21.3629 16.7424 20.8278 16.2096 20.7005Z" fill="#0D4A64"/>
<path d="M19.8514 29.8969C20.0405 30.0653 20.2761 30.1482 20.5108 30.1482C20.784 30.1482 21.056 30.036 21.252 29.816L24.0335 26.6935C24.4925 26.1826 24.4925 25.3825 24.0364 24.8749L21.2519 21.7492C20.8874 21.34 20.2603 21.304 19.8514 21.6682C19.4422 22.0326 19.406 22.6597 19.7705 23.0687L22.1879 25.7825L19.7705 28.4963C19.4061 28.9055 19.4423 29.5326 19.8514 29.8969Z" fill="#0D4A64"/>
<path d="M10.1391 21.6683C9.72991 21.3039 9.10304 21.3404 8.7386 21.7493L5.95737 24.8714C5.49781 25.3824 5.49781 26.1829 5.95422 26.6904L8.7387 29.8161C8.93474 30.0362 9.20662 30.1482 9.47987 30.1482C9.71457 30.1482 9.95034 30.0654 10.1393 29.897C10.5485 29.5326 10.5847 28.9055 10.2203 28.4965L7.80277 25.7828L10.2203 23.0689C10.5845 22.6597 10.5483 22.0326 10.1391 21.6683Z" fill="#0D4A64"/>
<path d="M48.1383 32.2177H47.7701C47.5772 31.5929 47.3272 30.9897 47.0223 30.4133L47.2851 30.1496C47.7048 29.7324 47.9365 29.1754 47.9374 28.5811C47.9383 27.9854 47.7074 27.4261 47.2872 27.006L46.7751 26.4942V5.36564C46.7751 2.40696 44.6872 0 42.1207 0H4.65438C2.08787 0 0 2.40696 0 5.36564V33.0898C0 36.0484 2.08787 38.4554 4.65438 38.4554H10.4742C11.022 38.4554 11.4661 38.0113 11.4661 37.4635C11.4661 36.9157 11.022 36.4716 10.4742 36.4716H4.65438C3.20686 36.4716 1.9839 34.9229 1.9839 33.0899V15.0938H44.7911V25.1176C44.6781 25.1002 44.5636 25.0888 44.447 25.0888C44.4459 25.0888 44.4447 25.0888 44.4436 25.0888C43.8493 25.0897 43.2922 25.3211 42.8783 25.7373L42.6102 26.0042C42.0217 25.6933 41.4088 25.4404 40.7768 25.2473V24.894C40.7768 23.668 39.7792 22.6707 38.5529 22.6707H36.7578C35.5331 22.6707 34.5368 23.668 34.5368 24.894V25.2715C33.9167 25.4664 33.318 25.7171 32.7457 26.0216L32.4888 25.7655C32.0715 25.3462 31.5144 25.1146 30.9201 25.1137C30.919 25.1137 30.9179 25.1137 30.9167 25.1137C30.3223 25.1137 29.7642 25.3444 29.3449 25.7634L28.0767 27.031C27.6564 27.4511 27.4256 28.0105 27.4265 28.606C27.4274 29.2004 27.6589 29.7574 28.0755 30.1713L28.3494 30.446C28.0521 31.0136 27.8078 31.6057 27.6189 32.2175H27.2421C26.0173 32.2175 25.021 33.2135 25.021 34.4379V36.2347C25.021 36.3146 25.0254 36.3935 25.0337 36.4712H19.2622C18.7144 36.4712 18.2703 36.9153 18.2703 37.4631C18.2703 38.0109 18.7144 38.455 19.2622 38.455H27.242H27.6226C27.8144 39.0726 28.0624 39.6694 28.3649 40.2407L28.0968 40.5076C27.2339 41.3751 27.2347 42.7836 28.0989 43.6471L29.3678 44.9155C29.785 45.3349 30.3422 45.5664 30.9365 45.5673H30.9397C31.5342 45.5673 32.0924 45.3366 32.5117 44.9175L32.7774 44.652C33.3538 44.9559 33.9531 45.2041 34.57 45.3949V45.7788C34.57 47.0048 35.5664 48.0021 36.7912 48.0021H38.589C39.8137 48.0021 40.81 47.0048 40.81 45.7788V45.3972C41.4328 45.2051 42.0346 44.9559 42.6103 44.6519L42.8748 44.9154C43.292 45.3349 43.849 45.5663 44.4433 45.5673H44.4467C45.0412 45.5673 45.5993 45.3366 46.0194 44.9168L47.2848 43.6492C47.7046 43.2321 47.9362 42.675 47.9371 42.0807C47.938 41.485 47.7071 40.9257 47.2868 40.5056L47.0221 40.241C47.324 39.6692 47.5718 39.0721 47.7633 38.4551H48.1381C49.3644 38.4551 50.362 37.4591 50.362 36.2347V34.4379C50.3622 33.2137 49.3646 32.2177 48.1383 32.2177ZM1.9839 13.1099V5.36564C1.9839 3.53264 3.20686 1.9839 4.65438 1.9839H42.1207C43.5683 1.9839 44.7912 3.53264 44.7912 5.36564V13.11L1.9839 13.1099ZM48.3783 36.2349C48.3783 36.3609 48.2662 36.4714 48.1382 36.4714H47.0039C46.5414 36.4714 46.1403 36.791 46.037 37.2418C45.8228 38.1767 45.4548 39.0634 44.9432 39.8774C44.6968 40.2693 44.7543 40.7796 45.0819 41.1069L45.8845 41.9091C45.9445 41.9691 45.9534 42.0407 45.9534 42.078C45.9533 42.1227 45.9417 42.1875 45.8837 42.245L44.6164 43.5146C44.5563 43.5746 44.4846 43.5836 44.4468 43.5836C44.4467 43.5836 44.4466 43.5836 44.4466 43.5836C44.4016 43.5836 44.3366 43.5719 44.2784 43.5134L43.4728 42.7111C43.1452 42.3848 42.6359 42.3283 42.2447 42.5742C41.4295 43.087 40.5391 43.4555 39.5981 43.6697C39.1467 43.7726 38.8263 44.1739 38.8263 44.637V45.7791C38.8263 45.9066 38.7155 46.0185 38.5892 46.0185H36.7914C36.665 46.0185 36.5541 45.9067 36.5541 45.7791V44.6341C36.5541 44.1706 36.2331 43.7688 35.781 43.6666C34.852 43.4565 33.9631 43.0885 33.1394 42.5731C32.9771 42.4715 32.7948 42.4219 32.6135 42.4219C32.3572 42.4219 32.1033 42.521 31.912 42.7124L31.1094 43.5146C31.0493 43.5746 30.9776 43.5836 30.9398 43.5836C30.9397 43.5836 30.9396 43.5836 30.9395 43.5836C30.8946 43.5836 30.8295 43.5719 30.7725 43.5147L29.5016 42.2443C29.4125 42.1554 29.4135 41.9978 29.5004 41.9104L30.3059 41.1082C30.635 40.7804 30.6925 40.2684 30.4446 39.8757C29.9322 39.0644 29.5637 38.1783 29.3493 37.2421C29.246 36.7913 28.8449 36.4716 28.3823 36.4716H27.2422C27.1137 36.4716 27.005 36.3633 27.005 36.2351V34.4383C27.005 34.3102 27.1137 34.2018 27.2422 34.2018H28.3794C28.8424 34.2018 29.2439 33.8814 29.3467 33.43C29.5584 32.4998 29.9222 31.6174 30.4278 30.807C30.672 30.4158 30.6143 29.908 30.2887 29.5814L29.4772 28.7676C29.4221 28.7129 29.4105 28.6481 29.4104 28.6034C29.4104 28.566 29.4192 28.4944 29.4792 28.4345L30.7473 27.167C30.8074 27.107 30.8791 27.0979 30.9169 27.0979H30.9172C30.9622 27.098 31.0273 27.1096 31.0854 27.1682L31.8853 27.9649C32.2139 28.2922 32.7251 28.3482 33.1164 28.1C33.9269 27.5861 34.8147 27.2139 35.7548 26.9939C36.2034 26.8889 36.5206 26.4888 36.5206 26.028V24.8943C36.5206 24.7645 36.6292 24.6549 36.7577 24.6549H38.5528C38.6829 24.6549 38.7929 24.7645 38.7929 24.8943V26.0113C38.7929 26.4761 39.1155 26.8785 39.5693 26.9795C40.5131 27.1897 41.4135 27.5609 42.2456 28.083C42.6366 28.3281 43.1454 28.2714 43.4727 27.9454L44.2816 27.1398C44.3365 27.0847 44.4015 27.0731 44.4465 27.073H44.4467C44.4845 27.073 44.5562 27.082 44.6162 27.142L45.8844 28.4094C45.9444 28.4694 45.9533 28.541 45.9533 28.5784C45.9532 28.6231 45.9416 28.6879 45.8832 28.7458L45.0805 29.5509C44.7536 29.8788 44.697 30.3891 44.944 30.7806C45.4575 31.5947 45.827 32.4863 46.0422 33.4304C46.1451 33.8817 46.5464 34.2019 47.0094 34.2019H48.1382C48.2661 34.2019 48.3783 34.3125 48.3783 34.4384V36.2349Z" fill="#0D4A64"/>
<path d="M37.6918 29.2786C34.3492 29.2786 31.6299 31.9967 31.6299 35.3379C31.6299 38.6774 34.3492 41.3944 37.6918 41.3944C41.033 41.3944 43.7511 38.6775 43.7511 35.3379C43.7511 31.9968 41.033 29.2786 37.6918 29.2786ZM37.6918 39.4105C35.4433 39.4105 33.6138 37.5835 33.6138 35.3379C33.6138 33.0907 35.4433 31.2625 37.6918 31.2625C39.939 31.2625 41.7672 33.0907 41.7672 35.3379C41.7672 37.5835 39.9389 39.4105 37.6918 39.4105Z" fill="#0D4A64"/>
<path d="M14.8977 36.4714H14.8783C14.3305 36.4714 13.8864 36.9155 13.8864 37.4633C13.8864 38.0111 14.3305 38.4552 14.8783 38.4552H14.8977C15.4455 38.4552 15.8896 38.0111 15.8896 37.4633C15.8896 36.9155 15.4455 36.4714 14.8977 36.4714Z" fill="#0D4A64"/>
</svg>
