<svg width="56" height="56" viewBox="0 0 56 56" fill="none" xmlns="http://www.w3.org/2000/svg">
<path d="M52.1197 0H44.7043C44.1014 0 43.6125 0.488906 43.6125 1.0918C43.6125 1.69469 44.1014 2.18359 44.7043 2.18359H52.1197C53.0001 2.18359 53.7164 2.89992 53.7164 3.78034V22.4436C53.7164 23.324 53.0001 24.0404 52.1196 24.0404H34.8131C34.5236 24.0404 34.2458 24.1554 34.0411 24.3602L32.5831 25.8183V25.1322C32.5831 24.5293 32.0942 24.0404 31.4913 24.0404H27.2272V14.5141C27.2272 13.15 26.3914 11.9778 25.2052 11.4817V3.78034C25.2052 2.89992 25.9215 2.18359 26.8019 2.18359H34.8781C35.481 2.18359 35.9699 1.69469 35.9699 1.0918C35.9699 0.488906 35.481 0 34.8781 0H26.8019C24.7174 0 23.0216 1.69578 23.0216 3.78034V11.2288H3.28532C1.47382 11.2288 0 12.7026 0 14.5141V29.7414C0 31.553 1.47382 33.0268 3.28543 33.0268H20.0114L22.402 35.4174C22.6109 35.6263 22.8902 35.7372 23.1743 35.7372C23.3149 35.7372 23.4568 35.71 23.5919 35.6541C23.9998 35.4851 24.2658 35.0871 24.2658 34.6454V33.0109C25.9258 32.8477 27.2272 31.4436 27.2272 29.7414V26.224H30.3995V28.4542C30.3995 28.8958 30.6656 29.2939 31.0735 29.4629C31.2086 29.5188 31.3505 29.546 31.4911 29.546C31.7753 29.546 32.0545 29.435 32.2633 29.2262L35.2655 26.224H52.1196C54.2041 26.224 55.9 24.5282 55.9 22.4436V3.78034C55.9 1.69578 54.2042 0 52.1197 0ZM25.0436 29.7414C25.0436 30.3489 24.5494 30.8432 23.9418 30.8432H23.174C22.5711 30.8432 22.0822 31.3322 22.0822 31.935V32.0096L21.2358 31.163C21.0311 30.9583 20.7533 30.8432 20.4638 30.8432H3.28543C2.67796 30.8432 2.18359 30.349 2.18359 29.7414V14.5141C2.18359 13.9066 2.67774 13.4123 3.28532 13.4123H23.9419C24.5494 13.4123 25.0436 13.9065 25.0436 14.5141V29.7414Z" fill="#0D4A64"/>
<path d="M30.2513 9.21837V20.7612C30.2513 21.3641 30.7402 21.853 31.3431 21.853H36.0248C36.6277 21.853 37.1166 21.3641 37.1166 20.7612V20.1527H37.2731C37.9463 21.1934 39.1184 21.853 40.3881 21.853H45.4054C47.2056 21.853 48.6703 20.3883 48.6703 18.5881V11.8055C48.6703 10.0052 47.2056 8.54058 45.4054 8.54058H43.9714V7.66561C43.9714 5.8469 42.4917 4.36719 40.673 4.36719C38.8543 4.36719 37.3745 5.8469 37.3745 7.66561V8.11816C37.3745 8.43369 37.2649 8.72356 37.0828 8.95371C36.9644 8.479 36.5362 8.12668 36.0248 8.12668H31.3431C30.7402 8.12657 30.2513 8.61548 30.2513 9.21837ZM39.5581 8.11805V7.66561C39.5581 7.05093 40.0583 6.55078 40.673 6.55078C41.2877 6.55078 41.7878 7.05093 41.7878 7.66561V11.4638C41.7878 12.0666 42.2767 12.5556 42.8796 12.5556C43.4825 12.5556 43.9714 12.0666 43.9714 11.4638V10.7242H45.4054C46.0016 10.7242 46.4867 11.2093 46.4867 11.8055V18.5881C46.4867 19.1843 46.0016 19.6694 45.4054 19.6694H40.3881C39.7561 19.6694 39.183 19.2714 38.962 18.6792C38.8027 18.2522 38.3949 17.9691 37.9391 17.9691H37.1167V11.4781C38.5321 11.017 39.5581 9.68544 39.5581 8.11805ZM32.4349 10.3102H34.933V19.6694H32.4349V10.3102Z" fill="#0D4A64"/>
<path d="M19.8219 18.4275H18.3605L18.8167 17.0193C19.0024 16.4456 18.6881 15.8299 18.1144 15.6441C17.5406 15.4587 16.9249 15.7727 16.7392 16.3463L16.065 18.4275H12.9207L13.3768 17.0193C13.5625 16.4456 13.2482 15.8299 12.6746 15.6441C12.1006 15.4587 11.4852 15.7727 11.2993 16.3463L10.6252 18.4275H8.42267C7.81978 18.4275 7.33087 18.9164 7.33087 19.5193C7.33087 20.1222 7.81978 20.6111 8.42267 20.6111H9.9181L8.94629 23.6112H6.78137C6.17848 23.6112 5.68958 24.1002 5.68958 24.703C5.68958 25.3059 6.17848 25.7948 6.78137 25.7948H8.23892L7.7867 27.1908C7.60098 27.7646 7.91531 28.3802 8.48894 28.566C8.60074 28.6022 8.71407 28.6194 8.82565 28.6194C9.28628 28.6194 9.71459 28.3256 9.86417 27.8637L10.5343 25.7948H13.6787L13.2265 27.1908C13.0407 27.7646 13.3551 28.3802 13.9287 28.566C14.0405 28.6022 14.1538 28.6194 14.2654 28.6194C14.726 28.6194 15.1544 28.3256 15.3039 27.8638L15.9741 25.7948H18.1807C18.7836 25.7948 19.2725 25.3059 19.2725 24.703C19.2725 24.1002 18.7836 23.6112 18.1807 23.6112H16.6815L17.6533 20.6111H19.822C20.4249 20.6111 20.9138 20.1222 20.9138 19.5193C20.9138 18.9164 20.4248 18.4275 19.8219 18.4275ZM14.386 23.6112H11.2416L12.2134 20.6111H15.3578L14.386 23.6112Z" fill="#0D4A64"/>
<path d="M52.6145 31.3634H31.9579C30.1464 31.3634 28.6726 32.8372 28.6726 34.6487V49.876C28.6726 51.5782 29.974 52.9823 31.634 53.1455V54.78C31.634 55.2217 31.9001 55.6197 32.308 55.7887C32.443 55.8446 32.585 55.8718 32.7256 55.8718C33.0098 55.8718 33.2889 55.7609 33.4978 55.552L35.8884 53.1614H52.6144C54.426 53.1614 55.8998 51.6876 55.8998 49.876V34.6487C55.8998 32.8372 54.426 31.3634 52.6145 31.3634ZM53.7162 49.8759C53.7162 50.4834 53.222 50.9777 52.6144 50.9777H35.4361C35.1465 50.9777 34.8688 51.0928 34.6641 51.2975L33.8176 52.1441V52.0695C33.8176 51.4666 33.3287 50.9777 32.7258 50.9777H31.958C31.3506 50.9777 30.8562 50.4835 30.8562 49.8759V34.6486C30.8562 34.0411 31.3503 33.5469 31.9579 33.5469H52.6145C53.222 33.5469 53.7162 34.041 53.7162 34.6486V49.8759Z" fill="#0D4A64"/>
<path d="M47.7438 37.8198C46.2452 36.3212 43.8295 36.2846 42.2866 37.7111C40.7435 36.2849 38.3278 36.3212 36.8292 37.8198C36.8258 37.8233 36.8223 37.8268 36.8189 37.8304C36.0815 38.573 35.6754 39.5579 35.6754 40.6052C35.6754 41.6572 36.0852 42.6463 36.829 43.3903L40.5205 47.0817C41.0072 47.5685 41.6466 47.8119 42.2861 47.8119C42.9254 47.8119 43.5648 47.5685 44.0516 47.0818L47.7435 43.3902C48.4874 42.6464 48.8973 41.6572 48.8973 40.605C48.8974 39.553 48.4878 38.5639 47.7438 37.8198ZM46.1996 41.8462L42.5077 45.5378C42.4318 45.6136 42.3453 45.6295 42.286 45.6295C42.2268 45.6295 42.1404 45.6136 42.0646 45.5377L38.3731 41.8462C38.0416 41.5147 37.859 41.074 37.859 40.6052C37.859 40.1363 38.0416 39.6956 38.373 39.3641L38.38 39.3571C39.0649 38.6796 40.1733 38.6818 40.8554 39.3639L41.5143 40.0229C41.7191 40.2277 41.9968 40.3428 42.2864 40.3428C42.5759 40.3428 42.8535 40.2277 43.0584 40.023L43.7174 39.364C44.4018 38.6794 45.5154 38.6796 46.1996 39.3639C46.531 39.6955 46.7137 40.1363 46.7136 40.6052C46.7137 41.074 46.5311 41.5147 46.1996 41.8462Z" fill="#0D4A64"/>
<path d="M39.791 2.18359C40.394 2.18359 40.8828 1.69478 40.8828 1.0918C40.8828 0.488814 40.394 0 39.791 0C39.188 0 38.6992 0.488814 38.6992 1.0918C38.6992 1.69478 39.188 2.18359 39.791 2.18359Z" fill="#0D4A64"/>
</svg>
