<svg width="58" height="47" viewBox="0 0 58 47" fill="none" xmlns="http://www.w3.org/2000/svg">
<path d="M14.2753 10.4652H42.1921C43.7527 10.4652 45.0222 9.19573 45.0222 7.63517V6.58498H54.2274C54.4989 6.58498 54.7198 6.80587 54.7198 7.07753V20.3601C54.7198 20.6316 54.4989 20.8525 54.2274 20.8525H51.2085L52.0116 20.0494C52.4521 19.6088 52.4521 18.8945 52.0116 18.4539C51.571 18.0133 50.8567 18.0133 50.416 18.4539L47.6871 21.1828C47.2527 21.6172 47.253 22.345 47.6879 22.779L50.416 25.5073C50.8506 25.9419 51.5768 25.942 52.0115 25.5073C52.452 25.0668 52.4521 24.3525 52.0115 23.9119L51.2083 23.1087H54.2273C55.7429 23.1087 56.976 21.8756 56.976 20.36V7.07753C56.976 5.56187 55.7429 4.32869 54.2273 4.32869H45.022V2.83006C45.022 1.2695 43.7525 0 42.192 0H33.2426C32.6196 0 32.1145 0.50507 32.1145 1.12814C32.1145 1.75122 32.6196 2.25629 33.2426 2.25629H42.192C42.5083 2.25629 42.7658 2.51373 42.7658 2.83006V7.63517C42.7658 7.9515 42.5083 8.20894 42.192 8.20894H14.2753C13.9588 8.20894 13.7015 7.9515 13.7015 7.63517V2.83006C13.7015 2.51362 13.9589 2.25629 14.2753 2.25629H23.3155C23.9386 2.25629 24.4437 1.75122 24.4437 1.12814C24.4437 0.50507 23.9386 0 23.3155 0H14.2753C12.7147 0 11.4452 1.26961 11.4452 2.83006V7.63517C11.4451 9.19573 12.7147 10.4652 14.2753 10.4652Z" fill="#0D4A64"/>
<path d="M26.8687 43.9613C28.4293 43.9613 29.6988 42.6917 29.6988 41.1313V36.3262C29.6988 34.7656 28.4293 33.4961 26.8687 33.4961H14.2753C12.7147 33.4961 11.4452 34.7656 11.4452 36.3262V41.1313C11.4452 42.6918 12.7148 43.9613 14.2753 43.9613H26.8687ZM13.7014 41.1313V36.3262C13.7014 36.0098 13.9588 35.7524 14.2751 35.7524H26.8686C27.185 35.7524 27.4424 36.0098 27.4424 36.3262V41.1313C27.4424 41.4477 27.185 41.705 26.8686 41.705H14.2751C13.9588 41.705 13.7014 41.4477 13.7014 41.1313Z" fill="#0D4A64"/>
<path d="M2.74872 39.8571H5.52554L4.72241 40.6603C4.28187 41.1009 4.28187 41.8152 4.72241 42.2557C4.94274 42.4761 5.23143 42.5862 5.52012 42.5862C5.80882 42.5862 6.09762 42.476 6.31783 42.2557L9.04682 39.5268C9.48736 39.0862 9.48736 38.372 9.04682 37.9313L6.31783 35.2022C5.87729 34.7617 5.16295 34.7617 4.72241 35.2022C4.28187 35.6428 4.28176 36.3571 4.72241 36.7977L5.52565 37.6009H2.74872C2.47718 37.6009 2.25629 37.38 2.25629 37.1084V23.6014C2.25629 23.3299 2.47718 23.109 2.74872 23.109H11.4451V24.3833C11.4451 25.9439 12.7148 27.2134 14.2752 27.2134H42.192C43.7526 27.2134 45.0221 25.9438 45.0221 24.3833V19.5782C45.0221 18.0177 43.7526 16.7482 42.192 16.7482H14.2753C12.7148 16.7482 11.4453 18.0177 11.4453 19.5782V20.8527H2.74872C1.23306 20.8527 0 22.0858 0 23.6014V37.1082C0 38.6239 1.23306 39.8571 2.74872 39.8571ZM13.7014 19.5782C13.7014 19.2619 13.9589 19.0045 14.2752 19.0045H42.192C42.5084 19.0045 42.7658 19.2619 42.7658 19.5782V24.3833C42.7658 24.6998 42.5084 24.9571 42.192 24.9571H14.2753C13.9589 24.9571 13.7015 24.6997 13.7015 24.3833V19.5782H13.7014Z" fill="#0D4A64"/>
<path d="M49.8709 30.8444C45.5233 30.8444 41.9863 34.3814 41.9863 38.729C41.9863 43.0765 45.5234 46.6136 49.8709 46.6136C54.2185 46.6136 57.7555 43.0765 57.7555 38.729C57.7555 34.3814 54.2186 30.8444 49.8709 30.8444ZM49.8709 44.3572C46.7674 44.3572 44.2426 41.8324 44.2426 38.7288C44.2426 35.6253 46.7674 33.1005 49.8709 33.1005C52.9743 33.1005 55.4992 35.6253 55.4992 38.7288C55.4992 41.8324 52.9745 44.3572 49.8709 44.3572Z" fill="#0D4A64"/>
<path d="M1.12814 6.58485H5.37877L4.57564 7.38798C4.1351 7.82852 4.1351 8.54286 4.57564 8.98351C5.0102 9.41807 5.7365 9.41807 6.17118 8.98351L8.90016 6.25453C9.33404 5.82144 9.33337 5.09209 8.89993 4.65888L6.17106 1.93001C5.73052 1.48947 5.01618 1.48947 4.57564 1.93001C4.1351 2.37056 4.1351 3.0849 4.57564 3.52544L5.37877 4.32856H1.12814C0.50507 4.32856 0 4.83363 0 5.45671C0 6.07978 0.50507 6.58485 1.12814 6.58485Z" fill="#0D4A64"/>
<path d="M51.4854 36.4018L48.9873 38.9L48.162 38.0746C47.7215 37.6341 47.0071 37.6341 46.5665 38.0746C46.1259 38.5152 46.1259 39.2295 46.5665 39.6702L48.1896 41.2932C48.624 41.7275 49.3506 41.7275 49.7851 41.2932L53.081 37.9973C53.5215 37.5568 53.5215 36.8425 53.081 36.4019C52.6404 35.9614 51.926 35.9611 51.4854 36.4018Z" fill="#0D4A64"/>
<path d="M31.7975 38.7289C31.7975 39.352 32.3026 39.8571 32.9256 39.8571H36.1609L35.3578 40.6602C34.9173 41.1007 34.9173 41.8151 35.3578 42.2557C35.7924 42.6903 36.5187 42.6903 36.9533 42.2557L39.6823 39.5267C40.1166 39.0924 40.1166 38.3655 39.6823 37.9312L36.9533 35.2022C36.5128 34.7617 35.7985 34.7617 35.3578 35.2022C34.9173 35.6428 34.9173 36.3571 35.3578 36.7978L36.1609 37.6009H32.9256C32.3026 37.6008 31.7975 38.1058 31.7975 38.7289Z" fill="#0D4A64"/>
<path d="M27.3052 1.55941C27.5416 2.12709 28.2093 2.40541 28.7785 2.16974C29.3466 1.93452 29.6229 1.26395 29.3877 0.696381C29.1524 0.128247 28.4836 -0.148599 27.9155 0.0860546C27.3482 0.32037 27.0691 0.992519 27.3052 1.55941Z" fill="#0D4A64"/>
</svg>
