<svg width="51" height="51" viewBox="0 0 51 51" fill="none" xmlns="http://www.w3.org/2000/svg">
<path d="M50.2527 31.4572C50.2643 31.3969 50.2709 31.3346 50.2709 31.2708V24.9375C50.2709 18.2764 47.6767 12.0142 42.9669 7.30398C38.2567 2.59379 31.9945 0 25.3333 0C21.198 0 17.1016 1.03326 13.4866 2.98847C13.0061 3.24823 12.8271 3.84894 13.0869 4.32943C13.347 4.8103 13.9473 4.98928 14.4282 4.72913C17.7545 2.9301 21.5258 1.97917 25.3333 1.97917C37.9927 1.97917 48.2917 12.2782 48.2917 24.9375V30.2898C48.2264 30.2844 48.1606 30.2813 48.0938 30.2813H45.9167V24.5417C45.9167 13.192 36.683 3.95833 25.3333 3.95833C13.9837 3.95833 4.75 13.192 4.75 24.5417V30.2813H2.57292C2.50604 30.2813 2.44033 30.2847 2.375 30.2898V24.9375C2.375 19.4994 4.31049 14.2249 7.82506 10.086C8.17875 9.66932 8.12773 9.04503 7.71141 8.69133C7.2947 8.33724 6.67003 8.38827 6.31633 8.80498C2.49831 13.3014 0.395833 19.0305 0.395833 24.9375V31.2708C0.395833 31.3346 0.402405 31.3969 0.414002 31.4572C0.15269 31.86 0 32.3393 0 32.8542V39.1875C0 40.6062 1.15426 41.7604 2.57292 41.7604H4.75V42.1068C4.75 43.8803 6.19263 45.3229 7.96615 45.3229H11.4297C13.2032 45.3229 14.6458 43.8803 14.6458 42.1068V29.9349C14.6458 28.1614 13.2032 26.7188 11.4297 26.7188H7.96615C7.52779 26.7188 7.11031 26.8073 6.72917 26.9665V24.5417C6.72917 14.2832 15.0749 5.9375 25.3333 5.9375C35.5918 5.9375 43.9375 14.2832 43.9375 24.5417V26.9665C43.5564 26.8073 43.1389 26.7188 42.7005 26.7188H39.237C37.4635 26.7188 36.0208 28.1614 36.0208 29.9349V42.1068C36.0208 43.8803 37.4635 45.3229 39.237 45.3229H42.7005C43.1389 45.3229 43.5564 45.2344 43.9375 45.0752V47.6318C43.9375 48.214 43.464 48.6875 42.8818 48.6875H27.391C26.8088 48.6875 26.3357 48.214 26.3357 47.6318V45.9294C27.7029 45.5019 28.6979 44.2236 28.6979 42.7172C28.6979 40.8617 27.1884 39.3526 25.3333 39.3526C23.4783 39.3526 21.9688 40.8617 21.9688 42.7172C21.9688 44.2325 22.9761 45.517 24.3565 45.9364V47.6318C24.3565 49.3052 25.7176 50.6667 27.391 50.6667H42.8818C44.5552 50.6667 45.9167 49.3052 45.9167 47.6318V41.7604H48.0938C49.5124 41.7604 50.6667 40.6062 50.6667 39.1875V32.8542C50.6667 32.3393 50.514 31.86 50.2527 31.4572ZM2.57292 39.7813C2.2455 39.7813 1.97917 39.5149 1.97917 39.1875V32.8542C1.97917 32.5268 2.2455 32.2604 2.57292 32.2604H4.75V39.7813H2.57292ZM7.96615 28.6979H11.4297C12.112 28.6979 12.6667 29.2526 12.6667 29.9349V42.1068C12.6667 42.7891 12.112 43.3438 11.4297 43.3438H7.96615C7.28388 43.3438 6.72917 42.7891 6.72917 42.1068V29.9349C6.72917 29.2526 7.28388 28.6979 7.96615 28.6979ZM23.9479 42.7172C23.9479 41.9529 24.5695 41.3317 25.3333 41.3317C26.0972 41.3317 26.7188 41.9529 26.7188 42.7172C26.7188 43.481 26.0972 44.1026 25.3333 44.1026C24.5695 44.1026 23.9479 43.481 23.9479 42.7172ZM42.7005 43.3438H39.237C38.5547 43.3438 38 42.7891 38 42.1068V29.9349C38 29.2526 38.5547 28.6979 39.237 28.6979H42.7005C43.3828 28.6979 43.9375 29.2526 43.9375 29.9349V42.1068C43.9375 42.7891 43.3828 43.3438 42.7005 43.3438ZM48.6875 39.1875C48.6875 39.5149 48.4212 39.7813 48.0938 39.7813H45.9167V32.2604H48.0938C48.4212 32.2604 48.6875 32.5268 48.6875 32.8542V39.1875Z" fill="#0D4A64"/>
<path d="M24.4763 33.25C24.653 33.5562 24.98 33.7448 25.3333 33.7448C25.6866 33.7448 26.0137 33.5562 26.1903 33.25L27.6971 30.6404C32.3872 30.3694 36.1198 26.4675 36.1198 21.7105C36.1198 16.7785 32.107 12.7656 27.1749 12.7656H23.4918C18.5597 12.7656 14.5469 16.7785 14.5469 21.7105C14.5469 26.4675 18.2795 30.3694 22.9695 30.6404L24.4763 33.25ZM16.526 21.7105C16.526 17.8697 19.651 14.7448 23.4918 14.7448H27.1749C31.0157 14.7448 34.1406 17.8697 34.1406 21.7105C34.1406 25.5514 31.0157 28.6763 27.1749 28.6763H27.1169C26.7632 28.6763 26.4366 28.8649 26.2599 29.1711L25.3333 30.776L24.4068 29.1711C24.2301 28.8649 23.9035 28.6763 23.5498 28.6763H23.4918C19.651 28.6763 16.526 25.5514 16.526 21.7105Z" fill="#0D4A64"/>
<path d="M20.5833 20.7209C20.3232 20.7209 20.0677 20.8269 19.8837 21.0109C19.6997 21.1949 19.5938 21.4504 19.5938 21.7105C19.5938 21.9707 19.6997 22.2262 19.8837 22.4102C20.0677 22.5942 20.3232 22.7001 20.5833 22.7001C20.8435 22.7001 21.099 22.5942 21.283 22.4102C21.467 22.2262 21.5729 21.9707 21.5729 21.7105C21.5729 21.4504 21.467 21.1949 21.283 21.0109C21.099 20.8269 20.8435 20.7209 20.5833 20.7209Z" fill="#0D4A64"/>
<path d="M25.3333 22.7001C25.5935 22.7001 25.849 22.5942 26.033 22.4102C26.217 22.2262 26.3229 21.9707 26.3229 21.7105C26.3229 21.4504 26.217 21.1949 26.033 21.0109C25.849 20.8269 25.5935 20.7209 25.3333 20.7209C25.0732 20.7209 24.8177 20.8269 24.6337 21.0109C24.4497 21.196 24.3438 21.4504 24.3438 21.7105C24.3438 21.9707 24.4497 22.2262 24.6337 22.4102C24.8177 22.5942 25.0732 22.7001 25.3333 22.7001Z" fill="#0D4A64"/>
<path d="M30.0833 22.7001C30.3435 22.7001 30.599 22.5942 30.783 22.4102C30.967 22.2262 31.0729 21.9707 31.0729 21.7105C31.0729 21.4504 30.967 21.1949 30.783 21.0109C30.599 20.8269 30.3435 20.7209 30.0833 20.7209C29.8232 20.7209 29.5677 20.8269 29.3837 21.0109C29.1997 21.1949 29.0938 21.4504 29.0938 21.7105C29.0938 21.9707 29.1997 22.2262 29.3837 22.4102C29.5677 22.5942 29.8232 22.7001 30.0833 22.7001Z" fill="#0D4A64"/>
<path d="M10.2542 7.32182C10.5144 7.32182 10.7695 7.21629 10.9535 7.0319C11.1387 6.8479 11.2438 6.59277 11.2438 6.33224C11.2438 6.07208 11.1387 5.81696 10.9535 5.63296C10.7695 5.44857 10.5152 5.34265 10.2542 5.34265C9.99369 5.34265 9.73857 5.44857 9.55457 5.63296C9.37056 5.81696 9.26465 6.07208 9.26465 6.33224C9.26465 6.59277 9.37018 6.8479 9.55457 7.0319C9.73857 7.21629 9.99369 7.32182 10.2542 7.32182Z" fill="#0D4A64"/>
</svg>
