<svg width="53" height="53" viewBox="0 0 53 53" fill="none" xmlns="http://www.w3.org/2000/svg">
<path d="M51.9319 40.2107L51.8343 40.1131C50.6818 38.9607 48.9744 38.6414 47.5138 39.2285V22.7733H51.4639C51.8827 22.7733 52.2602 22.5209 52.4203 22.134C52.5805 21.7471 52.4917 21.3016 52.1953 21.0058L31.4656 0.302654C31.0614 -0.100954 30.4066 -0.10085 30.0025 0.302757L24.3114 5.98825C23.9069 6.39227 23.9065 7.04774 24.3107 7.45217C24.7148 7.85671 25.3702 7.85702 25.7746 7.4529L30.7342 2.49822L48.9624 20.703H45.297L31.4654 6.88925C31.0613 6.48565 30.4066 6.48565 30.0025 6.88925L16.171 20.703H12.5055L20.0074 13.2109C20.4119 12.8068 20.4124 12.1515 20.0083 11.7469C19.6043 11.3424 18.949 11.342 18.5444 11.746L9.27273 21.0058C8.97636 21.3017 8.88754 21.7471 9.04768 22.134C9.20782 22.5209 9.58534 22.7733 10.0042 22.7733H13.9746V31.5861H12.4478V31.0848C12.4478 29.213 10.925 27.6903 9.05327 27.6903H1.03516C0.46344 27.6903 0 28.1539 0 28.7255V51.9647C0 52.5364 0.46344 52.9999 1.03516 52.9999H9.05327C10.9249 52.9999 12.4478 51.4772 12.4478 49.6054V49.1782L15.1676 50.8255C17.5164 52.2481 20.2093 53 22.9551 53H37.9876C40.9239 53 43.7976 51.9822 46.0794 50.134L51.6485 45.6232C52.4503 44.9738 52.941 44.0104 52.9949 42.98C53.0489 41.9496 52.6614 40.9403 51.9319 40.2107ZM10.3774 49.6054C10.3774 50.3356 9.78347 50.9296 9.05327 50.9296H2.07031V29.7606H9.05327C9.78337 29.7606 10.3774 30.3546 10.3774 31.0848V49.6054ZM16.0449 22.7733H16.5994C16.8737 22.7733 17.1367 22.6644 17.3308 22.4706L30.734 9.08472L44.1371 22.4706C44.3312 22.6645 44.5943 22.7733 44.8686 22.7733H45.4434V40.5006C45.4434 40.5384 45.4457 40.5755 45.4496 40.6122L43.2624 42.257C43.1209 41.5761 42.7986 40.939 42.3119 40.4523C41.7253 39.8658 40.9455 39.5429 40.116 39.5429H37.566V24.7401C37.566 24.1684 37.1026 23.705 36.5309 23.705H24.9371C24.3654 23.705 23.902 24.1684 23.902 24.7401V32.6455C22.8846 31.9568 21.6862 31.5861 20.4305 31.5861H16.0449V22.7733ZM35.4957 25.7753V39.5429H31.7915C31.2385 39.5429 30.7187 39.3275 30.3294 38.9381L25.9645 34.5529C25.9692 34.5129 25.9723 34.4726 25.9723 34.4314V25.7753H35.4957ZM50.9275 42.8717C50.9038 43.3237 50.6971 43.7294 50.3455 44.0143L44.7763 48.5251C42.862 50.0757 40.451 50.9296 37.9876 50.9296H22.9551C20.5874 50.9296 18.2653 50.2812 16.2402 49.0546L12.4478 46.7577V33.6564H20.4305C21.5364 33.6564 22.5763 34.0872 23.3567 34.8676L28.8637 40.4004C29.6459 41.1824 30.6856 41.6132 31.7915 41.6132H40.116C40.3925 41.6132 40.6526 41.7208 40.848 41.9164C41.3226 42.391 41.361 43.1728 41.1561 43.6674C41.0949 43.8152 41.0228 43.9206 40.9483 43.9973L40.8954 44.0371C40.8987 44.0377 40.9016 44.0382 40.9049 44.0389C40.7252 44.1958 40.5402 44.1967 40.4618 44.1967H28.0527C27.3373 44.1967 26.6423 43.9906 26.0428 43.6006L22.7209 41.44L22.7088 41.4321C22.23 41.1198 21.5886 41.2543 21.2761 41.7331C20.9636 42.2119 21.0984 42.8533 21.5771 43.1658L24.9139 45.3361C25.8502 45.9451 26.9356 46.267 28.0527 46.267H40.4617C41.1564 46.267 41.7825 46.0247 42.2751 45.5899L47.9237 41.342C48.6894 40.8245 49.7156 40.922 50.3703 41.577L50.468 41.6747C50.788 41.9946 50.9512 42.4198 50.9275 42.8717Z" fill="#0D4A64"/>
<path d="M42.0273 30.0842C41.4556 30.0842 40.9922 30.5478 40.9922 31.1194V37.6796C40.9922 38.2512 41.4556 38.7147 42.0273 38.7147C42.5991 38.7147 43.0625 38.2512 43.0625 37.6796V31.1194C43.0625 30.5478 42.5991 30.0842 42.0273 30.0842Z" fill="#0D4A64"/>
<path d="M42.7592 26.448C42.5667 26.2544 42.2996 26.1447 42.0273 26.1447C41.7551 26.1447 41.488 26.2544 41.2955 26.448C41.1029 26.6404 40.9922 26.9065 40.9922 27.1797C40.9922 27.4521 41.1029 27.7191 41.2955 27.9116C41.488 28.1042 41.7551 28.2149 42.0273 28.2149C42.2996 28.2149 42.5667 28.1042 42.7592 27.9116C42.9517 27.7191 43.0625 27.4521 43.0625 27.1797C43.0625 26.9064 42.9517 26.6404 42.7592 26.448Z" fill="#0D4A64"/>
<path d="M29.0733 31.8888C28.8807 31.6964 28.6137 31.5865 28.3414 31.5865C28.0681 31.5865 27.8021 31.6964 27.6085 31.8888C27.416 32.0824 27.3063 32.3484 27.3063 32.6207C27.3063 32.8939 27.416 33.16 27.6085 33.3536C27.8021 33.5461 28.0692 33.6569 28.3414 33.6569C28.6137 33.6569 28.8797 33.5461 29.0733 33.3536C29.2658 33.16 29.3766 32.8939 29.3766 32.6207C29.3766 32.3484 29.2658 32.0824 29.0733 31.8888Z" fill="#0D4A64"/>
<path d="M22.8913 8.86726C22.4871 8.46303 21.8316 8.46303 21.4273 8.86726C21.0231 9.27149 21.0231 9.92695 21.4273 10.3313L21.4275 10.3314C21.6297 10.5335 21.8945 10.6345 22.1594 10.6345C22.4243 10.6345 22.6893 10.5333 22.8913 10.3313C23.2956 9.92705 23.2955 9.27149 22.8913 8.86726Z" fill="#0D4A64"/>
<path d="M30.7339 13.6293C28.5078 13.6293 26.6968 15.4403 26.6968 17.6664C26.6968 19.8925 28.5078 21.7035 30.7339 21.7035C32.96 21.7035 34.771 19.8925 34.771 17.6664C34.771 15.4403 32.96 13.6293 30.7339 13.6293ZM30.7339 19.6332C29.6494 19.6332 28.7671 18.7509 28.7671 17.6664C28.7671 16.5819 29.6494 15.6996 30.7339 15.6996C31.8184 15.6996 32.7007 16.5819 32.7007 17.6664C32.7007 18.7509 31.8184 19.6332 30.7339 19.6332Z" fill="#0D4A64"/>
<path d="M6.95525 45.6431C6.76271 45.4505 6.49667 45.3398 6.22339 45.3398C5.95114 45.3398 5.68511 45.4505 5.49153 45.6431C5.29899 45.8357 5.18823 46.1028 5.18823 46.375C5.18823 46.6472 5.29899 46.9143 5.49153 47.1068C5.68511 47.2993 5.95114 47.4102 6.22339 47.4102C6.49667 47.4102 6.76271 47.2994 6.95525 47.1068C7.14882 46.9143 7.25855 46.6472 7.25855 46.375C7.25855 46.1028 7.14882 45.8357 6.95525 45.6431Z" fill="#0D4A64"/>
</svg>
