<svg width="45" height="56" viewBox="0 0 45 56" fill="none" xmlns="http://www.w3.org/2000/svg">
<path d="M37.4752 12.0585C37.0877 12.9879 38.1163 13.9113 38.9999 13.441C39.4111 13.2222 39.6413 12.7475 39.5612 12.2895C39.4797 11.8232 39.0976 11.4557 38.6282 11.3929C38.1421 11.3278 37.6631 11.6071 37.4752 12.0585Z" fill="#0D4A64"/>
<path d="M17.2965 31.7035H6.21382C4.36749 31.7035 2.86525 33.2056 2.86525 35.0519V48.2359C1.21273 48.7118 0 50.2364 0 52.04C0 54.223 1.776 55.999 3.95898 55.999C6.14196 55.999 7.91797 54.223 7.91797 52.04C7.91797 50.2364 6.70524 48.7118 5.05272 48.2359V35.0519C5.05272 34.4117 5.57355 33.8909 6.21382 33.8909H17.2965L21.1469 37.7413V47.4603H19.0647C18.4607 47.4603 17.971 47.9501 17.971 48.5541V54.9053C17.971 55.1953 18.0863 55.4736 18.2914 55.6786C18.4964 55.8837 18.7747 55.999 19.0647 55.999L25.416 55.9987C26.02 55.9987 26.5098 55.5089 26.5098 54.9049V48.5541C26.5098 47.9501 26.0201 47.4603 25.416 47.4603H23.3343V37.7413L27.1847 33.8909H38.2674C38.9077 33.8909 39.4285 34.4119 39.4285 35.052V48.2359C37.776 48.7118 36.5633 50.2364 36.5633 52.04C36.5633 54.223 38.3393 55.999 40.5222 55.999C42.7052 55.999 44.4812 54.223 44.4812 52.04C44.4812 50.2364 43.2685 48.7118 41.616 48.2359V35.052C41.616 33.2056 40.1138 31.7035 38.2674 31.7035H27.1847L23.3343 27.8531V20.2092H31.8456C33.9905 20.2092 36.0703 19.2741 37.552 17.6438C37.9582 17.1966 37.9252 16.505 37.4781 16.0988C37.0312 15.6924 36.3394 15.7256 35.933 16.1726C34.8651 17.3478 33.3752 18.0218 31.8454 18.0218H12.5942C10.4367 18.0218 8.6815 16.2665 8.6815 14.1091C8.6815 11.9515 10.4367 10.1964 12.5942 10.1964C12.72 10.1964 12.8468 10.203 12.9815 10.2164C13.5795 10.2763 14.1129 9.8425 14.1773 9.24543C14.6115 5.2217 17.9949 2.18746 22.0472 2.18746C25.0605 2.18746 27.7731 3.86284 29.1266 6.55999C29.36 7.02493 29.8885 7.26129 30.3905 7.12501C30.8645 6.99639 31.354 6.93131 31.8454 6.93131C33.3227 6.93131 34.7832 7.58208 35.8523 8.71694C36.2666 9.15673 36.9588 9.17729 37.3984 8.76299C37.8381 8.34879 37.8588 7.65667 37.4446 7.21688C35.9639 5.64519 33.9231 4.74385 31.8456 4.74385C31.4513 4.74385 31.0576 4.77392 30.6687 4.83375C28.8383 1.83167 25.6074 0 22.0472 0C17.2115 0 13.1223 3.38576 12.1577 8.02439C8.99704 8.24893 6.49404 10.8923 6.49404 14.1091C6.49404 17.4728 9.23055 20.2092 12.5942 20.2092H21.1469V27.8531L17.2965 31.7035ZM5.73061 52.0401C5.73061 53.017 4.9359 53.8116 3.95909 53.8116C2.98228 53.8116 2.18757 53.0169 2.18757 52.0401C2.18757 51.0633 2.98228 50.2686 3.95909 50.2686C4.9359 50.2686 5.73061 51.0632 5.73061 52.0401ZM24.3223 53.8114L20.1585 53.8115V49.6479H24.3223V53.8114ZM42.2936 52.0401C42.2936 53.017 41.4989 53.8116 40.5221 53.8116C39.5453 53.8116 38.7506 53.0169 38.7506 52.0401C38.7506 51.0633 39.5453 50.2686 40.5221 50.2686C41.4989 50.2686 42.2936 51.0632 42.2936 52.0401ZM22.2406 35.7414L19.2964 32.7972L22.2406 29.853L25.1848 32.7972L22.2406 35.7414Z" fill="#0D4A64"/>
</svg>
