<svg width="13" height="13" viewBox="0 0 13 13" fill="none" xmlns="http://www.w3.org/2000/svg">
<path d="M12.1665 12.2693C10.5632 9.96273 8.95979 7.65631 7.35337 5.3519C7.29604 5.26954 7.29127 5.22123 7.36059 5.14197C8.59373 3.73179 9.82333 2.31865 11.0536 0.906189C11.3103 0.611477 11.5666 0.316631 11.8387 0.00375131C11.5245 0.00375131 11.2327 0.0112873 10.9417 0.000387021C10.8059 -0.0047267 10.7212 0.0407585 10.634 0.141418C9.38605 1.58134 8.13248 3.01654 6.88449 4.45659C6.80374 4.54972 6.7799 4.52711 6.72148 4.44287C5.71427 2.99017 4.70365 1.53975 3.69643 0.0870512C3.65136 0.0220531 3.6056 0.00173274 3.52865 0.00200188C2.38757 0.00442417 1.24649 0.00348217 0.105406 0.00455874C0.0723135 0.00455874 0.0340459 -0.0121281 0.00204275 0.0211111C0.0273729 0.0589257 0.0513412 0.0956638 0.076399 0.131729C1.61813 2.34839 3.15946 4.56519 4.70378 6.78011C4.75662 6.85601 4.75962 6.89759 4.6967 6.96959C3.41862 8.43184 2.14339 9.89639 0.868579 11.3613C0.57701 11.6964 0.28939 12.035 0 12.372H1.07585C1.10894 12.3492 1.14599 12.3332 1.17309 12.3008C1.42421 11.9999 1.68909 11.7105 1.94443 11.4133C2.37096 10.9166 2.80484 10.4263 3.23327 9.93138C3.60887 9.49752 3.98759 9.06635 4.36278 8.63209C4.62698 8.32634 4.89567 8.02436 5.15891 7.71781C5.2379 7.62589 5.25424 7.62885 5.32001 7.72279C5.83179 8.45418 6.34207 9.18652 6.85045 9.92021C7.37026 10.6704 7.89429 11.418 8.41315 12.1689C8.463 12.2409 8.50399 12.3226 8.5827 12.372H12.2262C12.2217 12.329 12.1888 12.3017 12.1665 12.2694V12.2693ZM10.649 11.6024C10.1642 11.6036 9.67925 11.6014 9.19444 11.6052C9.11927 11.6057 9.07868 11.5783 9.03756 11.5203C6.53736 7.98426 4.0358 4.44933 1.53452 0.914264C1.51368 0.884927 1.49366 0.854917 1.45962 0.80526C2.00599 0.80526 2.53043 0.806875 3.05487 0.803511C3.13005 0.802973 3.1502 0.853706 3.18125 0.897711C4.02572 2.08988 4.86979 3.28246 5.71372 4.47503C7.37598 6.82398 9.0381 9.17306 10.7001 11.5221C10.7136 11.5413 10.7266 11.5609 10.7393 11.5796C10.7136 11.6194 10.6776 11.6025 10.6487 11.6025L10.649 11.6024Z" fill="white"/>
</svg>
